<svg width="1676" height="1201" viewBox="0 0 1676 1201" fill="none" xmlns="http://www.w3.org/2000/svg">
<g opacity="0.1">
<path d="M335.2 634L0 1111.21L1346.72 1119L1676 634H335.2Z" fill="#597EF7"/>
</g>
<path fill-rule="evenodd" clip-rule="evenodd" d="M724.706 832.361H814.587V819.421H724.706V832.361Z" fill="#253368"/>
<path fill-rule="evenodd" clip-rule="evenodd" d="M792.222 687.286L816.292 896.193H836.959L812.89 687.286H792.222Z" fill="#597EF7"/>
<path fill-rule="evenodd" clip-rule="evenodd" d="M726.403 687.286L702.333 896.193H723.001L747.07 687.286H726.403Z" fill="#597EF7"/>
<path fill-rule="evenodd" clip-rule="evenodd" d="M717.628 700.883C706.965 700.883 698.322 694.795 698.322 687.286C698.322 679.777 706.965 673.688 717.628 673.688H823.553C834.214 673.688 842.859 679.777 842.859 687.286C842.859 694.795 834.214 700.883 823.553 700.883H717.628Z" fill="#A3B5D6"/>
<path fill-rule="evenodd" clip-rule="evenodd" d="M684.292 916.372C667.021 918.971 658.951 911.867 658.951 911.867C658.951 911.867 658.435 904.757 661.798 900.193C666.009 894.481 683.023 894.823 691.05 881.458C701.232 864.506 693.865 841.477 693.865 841.477C700.035 832.375 722.022 837.535 722.022 837.535C722.022 837.535 723.73 855.716 725.4 866.818C726.393 873.418 732.016 883.148 730.327 893.707C730.327 893.707 726.244 898.915 710.478 903.419C699.757 906.484 697.386 914.401 684.292 916.372Z" fill="#253368"/>
<path fill-rule="evenodd" clip-rule="evenodd" d="M855.626 916.372C872.897 918.971 880.967 911.867 880.967 911.867C880.967 911.867 881.483 904.757 878.12 900.193C873.911 894.481 856.896 894.823 848.868 881.458C838.686 864.506 846.053 841.477 846.053 841.477C839.885 832.375 817.898 837.535 817.898 837.535C817.898 837.535 816.189 855.716 814.518 866.818C813.525 873.418 807.902 883.148 809.591 893.707C809.591 893.707 813.674 898.915 829.44 903.419C840.162 906.484 842.534 914.401 855.626 916.372Z" fill="#253368"/>
<path fill-rule="evenodd" clip-rule="evenodd" d="M688.49 859.601L658.252 703.063C655.318 689.659 664.314 676.559 677.88 674.486C690.978 672.485 703.183 681.58 705.01 694.703L728.413 852.304C728.413 852.304 716.39 865.409 688.49 859.601Z" fill="#ADC6FF"/>
<path fill-rule="evenodd" clip-rule="evenodd" d="M659.464 709.764C665.728 721.362 679.9 726.135 691.903 720.689L751.396 686.991C765.595 679.151 778.228 657.021 769.459 643.376C769.459 643.376 752.787 612.621 723.66 628.676L667.756 676.883C652.707 688.647 659.464 709.764 659.464 709.764Z" fill="#ADC6FF"/>
<path fill-rule="evenodd" clip-rule="evenodd" d="M850.043 861.101L880.282 703.063C883.216 689.659 874.22 676.559 860.656 674.486C847.556 672.485 835.351 681.58 833.524 694.703L810.122 855.304C810.122 855.304 828.388 865.403 850.043 861.101Z" fill="#ADC6FF"/>
<path fill-rule="evenodd" clip-rule="evenodd" d="M879.07 709.764C872.807 721.362 858.635 726.135 846.631 720.689L787.138 686.991C772.939 679.151 760.306 657.021 769.075 643.376C769.075 643.376 785.749 612.621 814.874 628.676L870.779 676.883C885.827 688.647 879.07 709.764 879.07 709.764Z" fill="#ADC6FF"/>
<path fill-rule="evenodd" clip-rule="evenodd" d="M746.372 452.553L748.666 413.617L783.718 415.391L785.78 452.622C786.403 463.868 777.505 473.352 766.243 473.448C754.82 473.545 745.7 463.956 746.372 452.553Z" fill="#FFC999"/>
<path fill-rule="evenodd" clip-rule="evenodd" d="M790.542 401.853C792.568 399.663 795.778 398.992 798.118 401.406C801.888 405.295 798.838 420.168 788.943 421.027C785.167 420.597 787.378 405.271 790.542 401.853Z" fill="#FFC999"/>
<path d="M794.981 403.688C795.272 403.63 795.555 403.819 795.613 404.11C795.665 404.372 795.518 404.627 795.276 404.718L795.192 404.742C795.124 404.755 794.972 404.804 794.765 404.906C794.402 405.084 794.037 405.35 793.692 405.72C792.942 406.526 792.4 407.708 792.168 409.351C792.118 409.709 792.147 409.819 792.42 409.979L792.76 410.157C793.468 410.523 793.842 410.941 793.931 411.759C794.075 413.081 793.552 414.124 792.617 414.882C792.132 415.275 791.65 415.511 791.308 415.624C791.027 415.717 790.723 415.564 790.63 415.283C790.537 415.001 790.69 414.697 790.972 414.604L791.113 414.548C791.156 414.53 791.205 414.507 791.259 414.48C791.492 414.366 791.725 414.222 791.941 414.047C792.612 413.503 792.964 412.801 792.864 411.876C792.824 411.517 792.712 411.36 792.385 411.175L792.129 411.041C791.31 410.625 790.968 410.169 791.105 409.201C791.366 407.346 792.002 405.96 792.905 404.989C793.66 404.177 794.432 403.798 794.981 403.688Z" fill="#DD936F"/>
<path fill-rule="evenodd" clip-rule="evenodd" d="M739.316 401.853C737.288 399.663 734.08 398.992 731.74 401.406C727.97 405.295 731.02 420.168 740.914 421.027C744.691 420.597 742.48 405.271 739.316 401.853Z" fill="#FFC999"/>
<path d="M734.877 403.407C735.427 403.517 736.198 403.896 736.953 404.707C737.856 405.678 738.492 407.064 738.753 408.919C738.882 409.827 738.589 410.284 737.877 410.681L737.591 410.829C737.171 411.046 737.038 411.195 736.995 411.593C736.894 412.519 737.246 413.222 737.918 413.766C738.133 413.94 738.366 414.084 738.599 414.198L738.745 414.266C738.809 414.294 738.857 414.313 738.887 414.322C739.168 414.415 739.321 414.719 739.228 415.001C739.135 415.282 738.831 415.435 738.55 415.342C738.209 415.23 737.726 414.993 737.241 414.6C736.306 413.842 735.784 412.799 735.927 411.477C736.009 410.722 736.334 410.308 736.941 409.961L737.242 409.802C737.697 409.571 737.751 409.499 737.69 409.069C737.458 407.426 736.916 406.244 736.167 405.439C735.822 405.068 735.456 404.803 735.094 404.625C734.928 404.543 734.797 404.495 734.717 404.473L734.666 404.46C734.376 404.402 734.187 404.119 734.245 403.828C734.297 403.566 734.532 403.387 734.79 403.397L734.877 403.407Z" fill="#DD936F"/>
<path fill-rule="evenodd" clip-rule="evenodd" d="M791.145 407.312C791.145 434.093 780.867 445.322 765.1 445.322C750.529 445.322 739.056 432.371 738.493 406.468C738.063 386.705 742.894 372.436 765.42 372.436C789.07 372.436 791.145 387.545 791.145 407.312Z" fill="#FFC999"/>
<path d="M751.928 440.853C752.101 440.612 752.437 440.557 752.678 440.73C756.189 443.254 761.194 444.645 766.155 444.645C771.397 444.645 775.216 443.483 779.059 440.744C779.3 440.572 779.635 440.628 779.808 440.87C779.98 441.111 779.923 441.447 779.682 441.619C775.653 444.491 771.616 445.719 766.155 445.719C760.982 445.719 755.759 444.267 752.051 441.603C751.81 441.43 751.755 441.094 751.928 440.853Z" fill="#DD936F"/>
<path fill-rule="evenodd" clip-rule="evenodd" d="M742.505 397.268C740.38 400.323 739.564 405.291 739.25 408.557C739.207 409.008 738.557 409.031 738.484 408.582C737.657 403.526 736.318 391.103 737.93 383.942C740.464 372.68 753.952 363.459 761.975 363.036C765.242 362.865 770.872 363.107 776.785 368.175C782.963 373.47 786.655 372.881 790.862 380.564C793.73 385.799 792.13 400.626 791.344 407.69C791.284 408.23 790.504 408.246 790.423 407.709C789.932 404.439 788.944 399.95 787.063 397.691C786.527 393.347 785.372 385.209 785.372 385.209C775.658 382.887 754.12 383.52 742.997 385.632L742.505 397.268Z" fill="#253368"/>
<path d="M771.527 396.679C774.626 396.216 777.838 396.077 780.873 396.462C781.615 396.556 782.334 396.681 783.03 396.839C783.837 397.023 784.344 397.826 784.16 398.634C783.976 399.442 783.173 399.948 782.365 399.764C781.767 399.629 781.143 399.52 780.495 399.438C777.772 399.092 774.82 399.22 771.971 399.646L771.288 399.755C771.07 399.792 770.861 399.829 770.663 399.867L770.125 399.974C769.98 400.004 769.875 400.028 769.814 400.042C769.009 400.236 768.199 399.739 768.006 398.934C767.812 398.128 768.309 397.318 769.114 397.125L769.499 397.04L769.785 396.981C770.302 396.878 770.886 396.775 771.527 396.679Z" fill="#253368"/>
<path d="M759.345 398.679C759.575 398.55 759.859 398.607 760.022 398.803L760.077 398.882L762.823 403.739C762.855 403.794 762.876 403.854 762.886 403.916L762.893 404.011L762.687 420.291L767.213 420.304C767.48 420.305 767.701 420.5 767.742 420.756L767.749 420.843C767.748 421.11 767.552 421.331 767.297 421.371L767.21 421.378L762.141 421.363C761.873 421.362 761.651 421.164 761.612 420.907L761.606 420.819L761.817 404.143L759.142 399.411C759.012 399.182 759.07 398.897 759.265 398.734L759.345 398.679Z" fill="#DD936F"/>
<path d="M748.171 394.782C750.669 394.424 753.276 394.872 755.822 395.828C756.978 396.261 757.868 396.699 758.394 397.007C759.11 397.424 759.352 398.342 758.934 399.058C758.541 399.732 757.705 399.985 757.011 399.665L756.582 399.436C756.511 399.399 756.43 399.358 756.339 399.314C755.872 399.084 755.344 398.852 754.768 398.636C752.653 397.843 750.52 397.476 748.597 397.752C747.747 397.874 746.957 398.121 746.231 398.503C745.498 398.889 744.591 398.607 744.205 397.874C743.819 397.141 744.1 396.234 744.833 395.848C745.873 395.301 746.991 394.952 748.171 394.782Z" fill="#253368"/>
<path d="M769.113 403.986C769.706 403.986 770.187 404.466 770.187 405.06C770.187 405.613 769.768 406.069 769.23 406.127L769.113 406.134H759.822C759.229 406.134 758.748 405.653 758.748 405.06C758.748 404.506 759.167 404.05 759.705 403.992L759.822 403.986H769.113Z" fill="#253368"/>
<path d="M760.608 408.322C762.987 407.133 765.387 407.186 767.555 407.984C768.141 408.2 768.577 408.421 768.837 408.583C769.34 408.898 769.493 409.56 769.178 410.063C768.886 410.53 768.294 410.695 767.808 410.465L767.561 410.327C767.395 410.238 767.14 410.12 766.812 410C765.157 409.39 763.355 409.35 761.569 410.243C761.038 410.508 760.393 410.293 760.128 409.763C759.863 409.232 760.078 408.587 760.608 408.322Z" fill="#253368"/>
<path fill-rule="evenodd" clip-rule="evenodd" d="M759.061 403.267L742.799 403.013C741.664 402.995 740.731 403.898 740.72 405.032C740.702 407.152 740.768 410.549 741.274 413.465C741.869 416.905 744.92 419.053 748.405 419.267C752.756 419.537 756.665 419.602 758.677 417.374C761.741 413.977 761.092 408.296 761.075 405.293C761.069 404.191 760.162 403.283 759.061 403.267Z" fill="white"/>
<path d="M759.066 402.909L742.805 402.655C741.47 402.635 740.375 403.697 740.363 405.029C740.337 408.088 740.492 411.048 740.921 413.527C741.524 417.005 744.579 419.39 748.383 419.624L749.175 419.67C754.589 419.958 757.2 419.544 758.942 417.614C760.278 416.134 761.019 414.177 761.327 411.761L761.389 411.214C761.5 410.126 761.521 409.064 761.488 407.548L761.435 405.503C761.434 405.434 761.434 405.367 761.433 405.291C761.426 403.996 760.363 402.929 759.066 402.909ZM742.794 403.371L759.055 403.625C759.964 403.638 760.713 404.39 760.718 405.295L760.752 406.771L760.772 407.556C760.81 409.295 760.776 410.419 760.617 411.671C760.326 413.954 759.635 415.778 758.411 417.135C756.795 418.925 754.151 419.266 748.427 418.91C744.936 418.695 742.168 416.534 741.626 413.404C741.205 410.976 741.052 408.055 741.078 405.035C741.087 404.102 741.855 403.356 742.794 403.371Z" fill="#253368"/>
<path d="M760.812 402.332C761.405 402.326 761.891 402.802 761.898 403.395C761.904 403.948 761.49 404.408 760.952 404.473L760.835 404.48L740.671 404.695C740.078 404.701 739.592 404.225 739.585 403.632C739.579 403.078 739.993 402.618 740.531 402.554L740.648 402.547L760.812 402.332Z" fill="#253368"/>
<path fill-rule="evenodd" clip-rule="evenodd" d="M754.542 410.127C754.542 411.761 753.534 413.084 752.289 413.084C751.045 413.084 750.037 411.761 750.037 410.127C750.037 408.495 751.045 407.171 752.289 407.171C753.534 407.171 754.542 408.495 754.542 410.127Z" fill="#253368"/>
<path fill-rule="evenodd" clip-rule="evenodd" d="M786.653 403.267L770.393 403.013C769.258 402.995 768.323 403.898 768.313 405.032C768.295 407.152 768.362 410.549 768.866 413.465C769.463 416.905 772.514 419.053 775.997 419.267C780.349 419.537 784.258 419.602 786.269 417.374C789.335 413.977 788.686 408.296 788.668 405.293C788.662 404.191 787.756 403.283 786.653 403.267Z" fill="white"/>
<path d="M786.659 402.909L770.399 402.656C769.064 402.635 767.968 403.697 767.955 405.029C767.929 408.077 768.085 411.045 768.514 413.526C769.118 417.005 772.173 419.39 775.976 419.624L776.768 419.67C782.181 419.958 784.793 419.544 786.535 417.614C787.871 416.134 788.613 414.177 788.92 411.762L788.983 411.213C789.094 410.125 789.114 409.061 789.081 407.544L789.027 405.433C789.026 405.388 789.026 405.341 789.026 405.291C789.019 403.995 787.957 402.929 786.659 402.909ZM770.388 403.371L786.648 403.625C787.558 403.638 788.305 404.389 788.31 405.295L788.318 405.815L788.345 406.767C788.411 408.973 788.393 410.239 788.211 411.671C787.92 413.954 787.229 415.778 786.004 417.135C784.388 418.925 781.744 419.266 776.02 418.91C772.53 418.695 769.762 416.534 769.219 413.404C768.799 410.974 768.645 408.044 768.671 405.035C768.679 404.102 769.449 403.356 770.388 403.371Z" fill="#253368"/>
<path fill-rule="evenodd" clip-rule="evenodd" d="M779.6 410.127C779.6 411.761 778.592 413.084 777.349 413.084C776.104 413.084 775.096 411.761 775.096 410.127C775.096 408.495 776.104 407.171 777.349 407.171C778.592 407.171 779.6 408.495 779.6 410.127Z" fill="#253368"/>
<path d="M788.405 402.332C788.998 402.326 789.484 402.802 789.49 403.395C789.496 403.948 789.082 404.408 788.545 404.473L788.428 404.48L768.263 404.695C767.67 404.701 767.184 404.225 767.178 403.632C767.172 403.078 767.586 402.618 768.123 402.554L768.24 402.547L788.405 402.332Z" fill="#253368"/>
<path d="M756.737 425.321C756.898 424.94 757.338 424.761 757.72 424.923L757.918 425C757.977 425.022 758.046 425.047 758.125 425.075L758.251 425.119C758.704 425.273 759.228 425.428 759.818 425.574C763.876 426.573 768.4 426.573 772.937 424.909C773.326 424.767 773.757 424.966 773.9 425.355C774.042 425.744 773.843 426.175 773.454 426.318C768.605 428.096 763.785 428.096 759.459 427.03C758.826 426.874 758.259 426.707 757.767 426.538L757.495 426.443C757.335 426.385 757.214 426.337 757.135 426.304C756.754 426.143 756.576 425.703 756.737 425.321Z" fill="#FF7946"/>
<path d="M768.655 431.563C768.945 431.504 769.228 431.693 769.286 431.984C769.344 432.275 769.156 432.558 768.865 432.616C768.459 432.697 768.03 432.758 767.582 432.801C766.256 432.927 764.847 432.888 763.491 432.748L762.983 432.69L762.478 432.619C762.185 432.57 761.988 432.293 762.037 432.001C762.085 431.708 762.362 431.511 762.654 431.559L762.842 431.588C763.028 431.615 763.286 431.647 763.601 431.68C764.893 431.813 766.235 431.85 767.48 431.732C767.893 431.692 768.286 431.636 768.655 431.563Z" fill="#DD936F"/>
<path fill-rule="evenodd" clip-rule="evenodd" d="M786.499 682.267C786.499 682.267 759.365 684.236 751.867 681.458C739.825 676.997 722.182 666.43 714.113 653.936C713.374 635.968 721.054 615.953 721.054 615.953L722.348 605.156C722.348 605.156 762.425 606.001 811.295 606.001C811.576 611.35 812.762 617.888 812.762 617.888C812.762 617.888 821.131 636.502 821.131 655.084C821.131 655.084 804.659 681.496 786.499 682.267Z" fill="#ADC6FF"/>
<path d="M725.455 615.827L734.995 615.839L739.972 615.853C752.45 615.895 765.733 615.986 779.251 616.111L792.672 616.246L809.123 616.442C809.538 616.448 809.869 616.788 809.863 617.203C809.857 617.617 809.517 617.948 809.103 617.942L797.782 617.803C793.607 617.755 789.182 617.708 784.566 617.662L774.181 617.566C764.936 617.486 755.835 617.423 747.065 617.382L736.635 617.343C732.783 617.333 729.053 617.327 725.455 617.327C725.041 617.327 724.705 616.991 724.705 616.577C724.705 616.163 725.041 615.827 725.455 615.827Z" fill="#597EF7"/>
<path d="M725.349 604.83L729.266 604.834C736.288 604.849 744.179 604.902 752.791 604.989L760.639 605.076C765.287 605.131 770.053 605.194 774.902 605.264L784.37 605.408C788.602 605.475 792.731 605.545 796.709 605.615L811.095 605.886C811.392 605.892 811.627 606.137 811.622 606.434C811.616 606.701 811.416 606.918 811.16 606.954L811.046 606.959L802.536 606.795L785.935 606.507L774.887 606.338C769.346 606.258 763.914 606.187 758.641 606.127L749.135 606.028C740.335 605.947 732.349 605.904 725.349 605.904C725.052 605.904 724.812 605.663 724.812 605.367C724.812 605.07 725.052 604.83 725.349 604.83Z" fill="#597EF7"/>
<path d="M768.332 605.765C768.746 605.762 769.085 606.095 769.088 606.509L769.295 633.621L769.425 654.827C769.472 663.87 769.499 671.577 769.502 677.612L769.503 678.736C769.503 679.15 769.167 679.486 768.753 679.486C768.338 679.486 768.003 679.15 768.003 678.736L767.982 667.95C767.964 662.473 767.934 656.197 767.895 649.252L767.711 621.936L767.589 606.522C767.585 606.108 767.918 605.769 768.332 605.765Z" fill="#597EF7"/>
<path fill-rule="evenodd" clip-rule="evenodd" d="M772.51 611.272C772.489 612.608 773.314 613.705 774.354 613.721C775.392 613.738 776.251 612.668 776.272 611.332C776.293 609.997 775.47 608.9 774.43 608.884C773.391 608.866 772.531 609.935 772.51 611.272Z" fill="white"/>
<path d="M781.432 615.906C781.844 615.864 782.212 616.164 782.254 616.576L782.329 617.403L782.401 618.302C782.448 618.93 782.494 619.619 782.539 620.365C782.963 627.526 782.963 635.503 782.255 643.521C781.576 651.223 778.447 654.92 771.895 655.813C771.485 655.869 771.107 655.582 771.051 655.171C770.995 654.761 771.282 654.383 771.693 654.327C777.511 653.534 780.14 650.428 780.761 643.389C781.462 635.453 781.462 627.546 781.041 620.454L780.96 619.188C780.933 618.787 780.905 618.408 780.877 618.051L780.762 616.728C780.72 616.316 781.02 615.948 781.432 615.906Z" fill="#597EF7"/>
<path fill-rule="evenodd" clip-rule="evenodd" d="M661.072 678.569C661.072 678.569 668.719 662.401 678.017 658.423C691.321 652.733 692.402 671.77 692.402 671.77C692.402 671.77 693.188 677.353 690.694 689.312C689.308 695.954 685.172 713.015 682.1 710.518C678.463 707.56 681.278 696.463 678.001 695.521C674.635 694.553 673.619 697.424 669.161 703.195C666.376 706.799 665.047 711.451 662.102 714.056C656.347 719.152 650.015 701.902 661.072 678.569Z" fill="#FFC999"/>
<path d="M668.409 693.824C668.619 693.662 668.92 693.701 669.082 693.91C669.244 694.119 669.205 694.42 668.996 694.582L668.765 694.774C668.712 694.82 668.652 694.873 668.585 694.933C668.247 695.236 667.869 695.603 667.46 696.035C666.289 697.275 665.116 698.784 664.021 700.569C662.088 703.717 660.61 707.373 659.769 711.552C659.717 711.812 659.464 711.98 659.205 711.927C658.945 711.875 658.777 711.623 658.829 711.363C659.694 707.07 661.214 703.309 663.204 700.067C664.335 698.225 665.549 696.664 666.764 695.377C667.19 694.925 667.588 694.539 667.945 694.219L668.226 693.974C668.303 693.908 668.365 693.858 668.409 693.824Z" fill="#DD936F"/>
<path d="M664.013 689.402C664.185 689.201 664.488 689.178 664.689 689.351C664.889 689.523 664.912 689.826 664.74 690.027C663.864 691.046 663.059 692.139 662.321 693.295C660.7 695.834 659.471 698.557 658.584 701.281C658.325 702.075 658.111 702.821 657.938 703.507L657.84 703.91C657.728 704.383 657.66 704.718 657.631 704.892C657.587 705.153 657.339 705.329 657.078 705.284C656.817 705.24 656.642 704.993 656.686 704.732L656.739 704.453L656.814 704.096C656.842 703.969 656.873 703.833 656.907 703.69C657.1 702.872 657.353 701.963 657.672 700.984C658.584 698.188 659.845 695.391 661.513 692.779C662.275 691.586 663.107 690.457 664.013 689.402Z" fill="#DD936F"/>
<path d="M662.445 683.267C662.637 683.085 662.94 683.094 663.122 683.286C663.304 683.478 663.295 683.782 663.103 683.964L662.902 684.171C662.834 684.245 662.753 684.335 662.66 684.442C662.292 684.866 661.881 685.393 661.436 686.028C660.158 687.855 658.876 690.183 657.678 693.056C657.22 694.154 656.783 695.314 656.368 696.538C656.283 696.789 656.011 696.924 655.761 696.839C655.51 696.754 655.375 696.482 655.46 696.231C655.882 694.986 656.327 693.805 656.794 692.687C658.018 689.75 659.333 687.362 660.651 685.479C661.114 684.816 661.546 684.262 661.936 683.814L662.123 683.602C662.266 683.444 662.375 683.333 662.445 683.267Z" fill="#DD936F"/>
<path fill-rule="evenodd" clip-rule="evenodd" d="M680.408 678.968C673.715 678.968 668.275 673.568 668.225 666.874L667.585 579.967C667.505 569.348 676.079 560.693 686.696 560.669C698.455 560.642 707.462 571.117 705.673 582.739L692.45 668.638C691.535 674.581 686.422 678.968 680.408 678.968Z" fill="#FFC999"/>
<path fill-rule="evenodd" clip-rule="evenodd" d="M681.762 599.294C671.911 596.716 665.787 586.897 667.806 576.916L686.091 486.512C688.779 473.216 702.091 464.914 715.215 468.349C728.184 471.743 735.73 485.24 731.829 498.065L704.989 586.309C701.989 596.171 691.735 601.904 681.762 599.294Z" fill="#FFC999"/>
<path fill-rule="evenodd" clip-rule="evenodd" d="M716.13 554.435L672.552 543.029L686.778 484.434C689.892 471.608 702.918 463.829 715.687 467.171C728.454 470.513 736 483.675 732.432 496.382L716.13 554.435Z" fill="#597EF7"/>
<path d="M671.826 542.839C671.922 542.472 672.275 542.24 672.641 542.285L672.742 542.304L716.32 553.71C716.72 553.815 716.96 554.225 716.855 554.625C716.759 554.993 716.407 555.225 716.04 555.18L715.94 555.161L672.362 543.755C671.961 543.65 671.721 543.24 671.826 542.839Z" fill="#253368"/>
<path fill-rule="evenodd" clip-rule="evenodd" d="M849.817 585.52C858.832 582.237 863.497 573.036 860.448 564.555L832.828 487.728C828.766 476.428 815.235 470.599 803.224 474.975C791.356 479.299 785.769 491.851 790.921 493.614L826.38 567.657C830.343 584.932 840.69 588.846 849.817 585.52Z" fill="#FFC999"/>
<path fill-rule="evenodd" clip-rule="evenodd" d="M819.738 554.727L861.506 537.855L839.919 481.553C835.194 469.23 821.28 463.178 809.043 468.12C796.806 473.064 791.001 487.082 796.163 499.229L819.738 554.727Z" fill="#597EF7"/>
<path d="M861.225 537.159C861.609 537.004 862.046 537.19 862.202 537.574C862.344 537.926 862.2 538.323 861.879 538.506L861.787 538.55L820.02 555.422C819.636 555.577 819.198 555.392 819.043 555.008C818.901 554.656 819.045 554.259 819.366 554.076L819.458 554.031L861.225 537.159Z" fill="#253368"/>
<path fill-rule="evenodd" clip-rule="evenodd" d="M815.19 585.943L827.19 469.428C824.613 466.935 808.697 461.27 785.286 457.193C778.607 456.029 771.885 466.884 764.79 467.223C759.992 467.451 746.594 456.839 742.575 457.43C718.406 460.983 708.728 465.2 697.808 470.1L716.838 583.788C716.838 583.788 709.448 598.953 721.89 604.905C813.116 604.905 809.964 605.561 809.964 605.561C809.964 605.561 821.336 602.193 815.19 585.943Z" fill="#597EF7"/>
<path fill-rule="evenodd" clip-rule="evenodd" d="M744.379 452.53L736.069 461.197L750.531 481.291L765.946 465.875L744.379 452.53Z" fill="#597EF7"/>
<path d="M737.16 460.569C737.475 460.362 737.888 460.424 738.13 460.698L738.198 460.786L750.6 479.753L765.43 465.458C765.701 465.196 766.118 465.18 766.407 465.403L766.49 465.477C766.751 465.748 766.768 466.165 766.545 466.455L766.471 466.538L750.989 481.463C750.677 481.764 750.182 481.734 749.905 481.418L749.841 481.333L736.942 461.607C736.716 461.26 736.813 460.795 737.16 460.569Z" fill="#253368"/>
<path fill-rule="evenodd" clip-rule="evenodd" d="M787.204 452.53L794.014 461.197L781.053 481.291L765.637 465.875L787.204 452.53Z" fill="#597EF7"/>
<path d="M791.864 460.821C792.071 460.462 792.53 460.34 792.889 460.547C793.218 460.737 793.348 461.138 793.208 461.48L793.163 461.572L781.764 481.298C781.539 481.688 781.032 481.787 780.679 481.533L780.595 481.463L765.113 466.538C764.815 466.25 764.806 465.775 765.094 465.477C765.355 465.206 765.771 465.174 766.069 465.387L766.154 465.458L780.945 479.717L791.864 460.821Z" fill="#253368"/>
<path fill-rule="evenodd" clip-rule="evenodd" d="M769.797 481.944C769.776 483.279 770.661 484.377 771.774 484.395C772.887 484.413 773.807 483.345 773.829 482.008C773.85 480.673 772.965 479.575 771.852 479.557C770.738 479.539 769.818 480.607 769.797 481.944Z" fill="white"/>
<path fill-rule="evenodd" clip-rule="evenodd" d="M769.797 506.806C769.776 508.143 770.661 509.239 771.774 509.257C772.887 509.275 773.807 508.207 773.829 506.871C773.85 505.536 772.965 504.438 771.852 504.42C770.738 504.402 769.818 505.471 769.797 506.806Z" fill="white"/>
<path fill-rule="evenodd" clip-rule="evenodd" d="M769.797 533.386C769.776 534.723 770.661 535.819 771.774 535.837C772.887 535.855 773.807 534.787 773.829 533.451C773.85 532.116 772.965 531.018 771.852 531C770.738 530.982 769.818 532.05 769.797 533.386Z" fill="white"/>
<path fill-rule="evenodd" clip-rule="evenodd" d="M769.797 560.329C769.776 561.666 770.661 562.762 771.774 562.78C772.887 562.798 773.807 561.73 773.829 560.394C773.85 559.059 772.965 557.961 771.852 557.943C770.738 557.925 769.818 558.994 769.797 560.329Z" fill="white"/>
<path fill-rule="evenodd" clip-rule="evenodd" d="M769.797 591.435C769.776 592.771 770.661 593.868 771.774 593.886C772.887 593.904 773.807 592.836 773.829 591.499C773.85 590.164 772.965 589.066 771.852 589.048C770.738 589.03 769.818 590.098 769.797 591.435Z" fill="white"/>
<path d="M766.041 467.656C766.421 467.656 766.734 467.938 766.784 468.305L766.791 468.406V603.787C766.791 604.202 766.455 604.537 766.041 604.537C765.661 604.537 765.347 604.255 765.298 603.889L765.291 603.787V468.406C765.291 467.992 765.627 467.656 766.041 467.656Z" fill="#253368"/>
<path d="M750.733 499.477H722.848C722.427 499.477 722.088 499.823 722.098 500.244L722.594 521.992C722.6 522.254 722.742 522.494 722.969 522.625L737.791 531.184C738.046 531.331 738.364 531.315 738.603 531.143L751.17 522.119C751.366 521.979 751.483 521.752 751.483 521.51V500.227C751.483 499.813 751.147 499.477 750.733 499.477ZM749.982 500.976V521.126L738.122 529.642L724.084 521.536L723.615 500.976H749.982Z" fill="#253368"/>
<path d="M823.099 506.415C823.512 506.438 823.829 506.792 823.806 507.205L823.717 508.443L823.493 511.18C823.336 513.023 823.13 515.318 822.869 518.114L822.029 526.907C820.777 539.767 818.956 557.546 816.464 581.045L815.95 585.88L816.044 586.217C818.506 595.226 817.496 600.881 814.176 603.846L813.999 604C812.776 605.032 811.546 605.499 810.577 605.633L810.387 605.655H721.891C721.792 605.655 721.694 605.636 721.602 605.597C721.334 605.486 720.89 605.264 720.327 604.921C719.399 604.357 718.473 603.651 717.607 602.792C713.235 598.459 712.063 592.193 715.967 583.872L716.064 583.664L715.293 577.802L714.683 573.086L714.038 568.05C712.64 557.053 711.229 545.536 709.849 533.948L708.82 525.238C708.518 522.668 708.23 520.2 707.958 517.849L706.872 508.374C706.825 507.963 707.121 507.591 707.533 507.545C707.945 507.499 708.316 507.795 708.362 508.206L709.566 518.69C709.921 521.755 710.302 525.01 710.705 528.421L711.339 533.771C712.824 546.245 714.345 558.639 715.849 570.387L716.17 572.895C716.648 576.609 717.119 580.211 717.581 583.69C717.6 583.835 717.576 583.983 717.512 584.116C713.657 592.061 714.672 597.772 718.663 601.727C719.44 602.498 720.274 603.133 721.107 603.64C721.324 603.772 721.529 603.888 721.719 603.988L722.051 604.155L810.311 604.159C810.431 604.147 810.658 604.102 810.96 604.006L811.117 603.953C811.768 603.726 812.421 603.369 813.031 602.854C816.041 600.313 816.996 595.08 814.468 586.148C814.442 586.056 814.434 585.96 814.444 585.864L817.071 560.929C818.407 548.104 819.482 537.515 820.322 528.951L821.115 520.742C821.429 517.437 821.678 514.716 821.871 512.519L822.181 508.848L822.308 507.122C822.331 506.709 822.685 506.392 823.099 506.415Z" fill="#253368"/>
<path fill-rule="evenodd" clip-rule="evenodd" d="M877.835 474.247C871.976 472.879 865.97 475.936 864.104 481.236L831.457 565.002C828.154 574.384 834.13 584.386 844.496 586.831C854.911 589.285 865.4 583.089 867.329 573.34L886.304 486.394C887.387 480.922 883.685 475.614 877.835 474.247Z" fill="#FFC999"/>
<path fill-rule="evenodd" clip-rule="evenodd" d="M867.003 486.689C867.003 486.689 861.231 479.67 865.692 466.068C869.046 455.84 862.651 448.319 866.149 446.936C869.647 445.551 874.711 452.948 875.851 460.491C882.729 454.218 882.987 443.181 888.667 439.373C894.705 435.324 908.839 444.989 892.965 476.226C878.944 501.566 867.003 486.689 867.003 486.689Z" fill="#FFC999"/>
<path d="M874.717 456.871C874.949 456.778 875.211 456.891 875.304 457.123C875.758 458.266 876.071 459.246 876.267 460.065L876.345 460.411C876.368 460.516 876.386 460.612 876.401 460.697L876.435 460.911L876.513 460.989C876.736 461.225 877.002 461.56 877.271 461.995L877.406 462.221C878.784 464.611 878.974 467.682 877.244 471.362C877.138 471.587 876.869 471.684 876.644 471.578C876.418 471.472 876.321 471.203 876.427 470.978C878.028 467.571 877.857 464.811 876.624 462.672C876.418 462.314 876.197 462.007 875.979 461.752L875.842 461.598C875.782 461.534 875.736 461.489 875.707 461.464C875.619 461.387 875.565 461.278 875.556 461.161L875.527 460.942C875.501 460.782 875.457 460.56 875.389 460.275C875.203 459.499 874.904 458.56 874.465 457.457C874.372 457.225 874.485 456.963 874.717 456.871Z" fill="#DD936F"/>
<path d="M898.8 446.088C899.049 446.083 899.256 446.281 899.261 446.53C899.266 446.779 899.069 446.986 898.819 446.991C897.74 447.015 897.096 447.616 896.754 448.669C896.581 449.198 896.512 449.754 896.506 450.226L896.509 450.493L896.486 450.666L896.263 451.306C896.084 451.813 895.881 452.379 895.659 452.988C895.024 454.729 894.358 456.47 893.692 458.095C893.299 459.055 892.917 459.947 892.55 460.758C891.794 462.427 891.119 463.716 890.538 464.556C890.245 464.98 889.885 465.407 889.439 465.866L889.208 466.099C888.963 466.342 888.703 466.588 888.387 466.876L886.675 468.407C883.446 471.329 882.07 473.517 882.206 476.663C882.216 476.912 882.023 477.123 881.774 477.133C881.525 477.144 881.314 476.951 881.303 476.702C881.158 473.323 882.569 470.969 885.764 468.016L887.776 466.211C888.084 465.93 888.337 465.691 888.572 465.458C889.09 464.944 889.489 464.486 889.795 464.043C890.339 463.257 890.992 462.009 891.727 460.386C892.089 459.586 892.467 458.703 892.856 457.753C893.385 456.462 893.914 455.096 894.428 453.716L895.066 451.973L895.605 450.448L895.602 450.248C895.606 449.766 895.665 449.217 895.813 448.665L895.895 448.389C896.346 447.003 897.29 446.121 898.8 446.088Z" fill="#DD936F"/>
<path d="M892.403 438.982C892.65 438.943 892.88 439.112 892.919 439.358C892.957 439.604 892.789 439.835 892.542 439.874L892.403 439.903C892.289 439.931 892.135 439.977 891.951 440.045C891.485 440.22 891.017 440.476 890.581 440.829C889.457 441.739 888.732 443.122 888.597 445.106L888.58 445.424C888.515 447.254 887.428 450.342 885.74 453.99L885.323 454.875C884.834 455.897 884.34 456.869 883.914 457.656L883.718 458.012C883.564 458.289 883.432 458.514 883.333 458.671L883.225 458.833C883.209 458.856 883.193 458.876 883.178 458.894L883.135 458.944C883.098 458.982 883.098 458.982 883.012 459.04L882.916 459.086C882.82 459.122 882.755 459.094 882.463 458.967L882.379 458.819C882.338 458.745 882.325 458.712 882.323 458.675L882.334 458.545C882.336 458.531 882.339 458.52 882.344 458.497C882.369 458.39 882.432 458.3 882.514 458.239L882.552 458.215L882.57 458.188C882.642 458.075 882.736 457.916 882.846 457.721L883.12 457.225L883.494 456.52C883.946 455.652 884.446 454.637 884.921 453.611L885.262 452.861C886.648 449.774 887.551 447.149 887.667 445.576L887.678 445.392C887.764 442.976 888.627 441.249 890.013 440.127C890.9 439.409 891.787 439.078 892.403 438.982Z" fill="#DD936F"/>
<path d="M879.538 457.662C879.64 457.434 879.907 457.332 880.134 457.434L880.377 457.546L880.623 457.663C881.006 457.85 881.433 458.067 881.893 458.314C883.205 459.02 884.518 459.823 885.745 460.71C887.413 461.915 888.791 463.181 889.782 464.498C889.932 464.698 889.892 464.981 889.693 465.131C889.494 465.281 889.211 465.241 889.061 465.041C888.131 463.806 886.817 462.599 885.216 461.442C884.024 460.581 882.744 459.798 881.465 459.109C881.017 458.868 880.601 458.657 880.229 458.476L879.767 458.258C879.539 458.157 879.437 457.89 879.538 457.662Z" fill="#DD936F"/>
<path d="M861.04 488.822C861.138 488.568 861.424 488.441 861.678 488.54C861.904 488.627 862.029 488.863 861.985 489.092L861.96 489.178L834.64 559.814C834.542 560.068 834.256 560.195 834.002 560.097C833.776 560.009 833.651 559.774 833.695 559.544L833.72 559.458L861.04 488.822Z" fill="#DD936F"/>
<path fill-rule="evenodd" clip-rule="evenodd" d="M920.941 528.054C920.941 528.054 918.314 507.429 946.685 498.148C975.056 488.867 981.361 493.765 981.361 493.765L978.734 502.015C978.734 502.015 974.268 522.64 953.778 525.476C933.288 528.312 925.407 524.187 920.941 528.054Z" fill="#7CB305"/>
<path d="M978.319 494.738L979.149 495.371L979.08 495.455C979.05 495.491 979.013 495.536 978.969 495.587L978.838 495.74C978.746 495.846 978.644 495.96 978.533 496.082L978.448 496.175C977.871 496.803 977.175 497.501 976.359 498.251C974.031 500.39 971.198 502.527 967.845 504.52C961.111 508.524 953.161 511.433 943.95 512.789L943.608 512.838C937.409 513.721 932.468 515.742 928.641 518.555C926.806 519.904 925.349 521.347 924.232 522.788C923.843 523.289 923.525 523.753 923.273 524.167L923.191 524.305C923.152 524.371 923.117 524.433 923.085 524.49L922.997 524.655L922.992 524.666L922.042 524.224L922.071 524.166C922.132 524.048 922.23 523.87 922.371 523.639C922.643 523.192 922.983 522.696 923.396 522.163C924.57 520.649 926.095 519.138 928.012 517.729C931.922 514.856 936.938 512.785 943.185 511.857L943.457 511.817C952.67 510.505 960.601 507.621 967.3 503.638C970.589 501.683 973.364 499.59 975.64 497.498C976.382 496.817 977.02 496.181 977.554 495.607L977.667 495.485C977.833 495.304 977.978 495.141 978.102 494.997L978.241 494.833L978.319 494.738Z" fill="#7CB305"/>
<path fill-rule="evenodd" clip-rule="evenodd" d="M977.946 541.976H981.361V493.765H977.946L978.866 508.579C979.128 512.794 979.157 517.02 978.952 521.238L977.946 541.976Z" fill="#7CB305"/>
<path fill-rule="evenodd" clip-rule="evenodd" d="M925.349 457.465C925.349 457.465 935.805 441.86 960.717 451.748C985.629 461.635 986.878 469.531 986.878 469.531L980.332 472.73C980.332 472.73 965.027 484.276 949.332 474.491C933.637 464.706 930.7 457.376 925.349 457.465Z" fill="#7CB305"/>
<path fill-rule="evenodd" clip-rule="evenodd" d="M983.463 555.382H986.09L987.119 470.277C987.131 469.228 986.427 468.3 985.398 468.011L983.463 467.468C983.463 467.468 984.122 475.376 983.988 485.257C983.859 494.71 982.937 505.958 982.937 514.288C982.937 537.851 983.463 555.382 983.463 555.382Z" fill="#7CB305"/>
<path fill-rule="evenodd" clip-rule="evenodd" d="M960.871 456.898C972.207 465.533 983.725 471.078 983.725 471.078L980.332 472.73C980.332 472.73 965.027 484.276 949.332 474.491C933.637 464.706 930.7 457.376 925.349 457.465C925.349 457.465 943.27 443.492 960.871 456.898Z" fill="#5B8C00"/>
<path fill-rule="evenodd" clip-rule="evenodd" d="M1048.28 494.376C1048.28 494.376 1041.23 483.902 1024.43 490.539C1007.62 497.175 1006.78 502.475 1006.78 502.475L1011.19 504.622C1011.19 504.622 1021.52 512.372 1032.11 505.804C1042.69 499.236 1044.67 494.317 1048.28 494.376Z" fill="#7CB305"/>
<path fill-rule="evenodd" clip-rule="evenodd" d="M1009.04 560.523H1007.23L1006.52 503.121C1006.51 502.413 1006.99 501.787 1007.7 501.593L1009.04 501.227C1009.04 501.227 1008.59 506.56 1008.68 513.225C1008.77 519.601 1009.41 527.187 1009.41 532.806C1009.41 548.699 1009.04 560.523 1009.04 560.523Z" fill="#7CB305"/>
<path fill-rule="evenodd" clip-rule="evenodd" d="M1050.25 437.613C1050.25 437.613 1039.79 422.008 1014.88 431.896C989.965 441.784 988.717 449.679 988.717 449.679L995.262 452.878C995.262 452.878 1010.57 464.425 1026.26 454.64C1041.96 444.854 1044.89 437.524 1050.25 437.613Z" fill="#7CB305"/>
<path fill-rule="evenodd" clip-rule="evenodd" d="M992.132 538.882H989.505L988.475 450.426C988.463 449.376 989.167 448.448 990.196 448.159L992.132 447.617C992.132 447.617 991.472 455.524 991.606 465.406C991.735 474.858 992.657 486.106 992.657 494.437C992.657 518 992.132 538.882 992.132 538.882Z" fill="#7CB305"/>
<path fill-rule="evenodd" clip-rule="evenodd" d="M1050.25 437.613C1050.25 437.613 1032.32 423.64 1014.72 437.047C1003.39 445.681 991.869 451.226 991.869 451.226L995.262 452.878C995.262 452.878 1010.57 464.425 1026.26 454.64C1041.96 444.854 1044.89 437.524 1050.25 437.613Z" fill="#5B8C00"/>
<path fill-rule="evenodd" clip-rule="evenodd" d="M996.86 538.109H1001.33L1003.09 483.319L999.728 431.606C999.741 430.556 999.036 429.628 998.008 429.339L996.072 428.796C996.072 428.796 1000.28 469.864 1000.28 478.195C1000.28 501.757 996.86 538.109 996.86 538.109Z" fill="#7CB305"/>
<path fill-rule="evenodd" clip-rule="evenodd" d="M946.605 399.862C946.605 399.862 956.142 386 978.734 399.921C1001.49 413.945 999.912 432.343 999.912 432.343L992.639 433.085C992.639 433.085 974.179 438.629 962.979 424.063C951.779 409.497 951.647 401.621 946.605 399.862Z" fill="#7CB305"/>
<path fill-rule="evenodd" clip-rule="evenodd" d="M946.605 399.862C946.605 399.862 956.872 392.435 965.599 403.015C970.065 408.429 977.966 412.511 981.361 415.648C990.181 423.797 996.407 432.706 996.407 432.706L992.639 433.085C992.639 433.085 974.179 438.629 962.979 424.063C951.779 409.497 951.647 401.621 946.605 399.862Z" fill="#5B8C00"/>
<path fill-rule="evenodd" clip-rule="evenodd" d="M1021.75 610.296H960.807C957.325 610.296 954.502 607.526 954.502 604.109V544.296C954.502 540.879 957.325 538.109 960.807 538.109H1021.75C1025.23 538.109 1028.06 540.879 1028.06 544.296V604.109C1028.06 607.526 1025.23 610.296 1021.75 610.296Z" fill="#253368"/>
<path fill-rule="evenodd" clip-rule="evenodd" d="M886.689 491.444L866.81 481.019C865.165 480.156 864.549 478.121 865.436 476.475L888.509 433.671C889.395 432.024 891.449 431.39 893.095 432.252L912.974 442.677C914.621 443.541 915.235 445.575 914.347 447.221L891.276 490.025C890.388 491.673 888.334 492.307 886.689 491.444Z" fill="black"/>
<path fill-rule="evenodd" clip-rule="evenodd" d="M890.541 486.972L868.156 474.449L889.157 436.561L911.542 449.084L890.541 486.972Z" fill="#253368"/>
<path fill-rule="evenodd" clip-rule="evenodd" d="M486.064 999.231C482.002 999.231 478.801 995.516 479.117 991.169L505.56 627.45H530.899L493.572 992.567C493.183 996.359 490.2 999.231 486.645 999.231" fill="#FFC53D"/>
<path fill-rule="evenodd" clip-rule="evenodd" d="M1069.85 999.231C1073.91 999.231 1077.11 995.516 1076.8 991.169L1050.35 627.45H1025.02L1062.34 992.567C1062.73 996.359 1065.71 999.231 1069.27 999.231" fill="#FFC53D"/>
<path fill-rule="evenodd" clip-rule="evenodd" d="M1065.34 627.45H490.573C488.487 627.45 486.534 626.347 485.353 624.502C482.463 619.99 485.472 613.848 490.573 613.848H1065.34C1070.44 613.848 1073.45 619.99 1070.56 624.502C1069.38 626.347 1067.43 627.45 1065.34 627.45Z" fill="#FFC53D"/>
<path fill-rule="evenodd" clip-rule="evenodd" d="M1051.2 636.518H504.715L505.559 627.45H1050.35L1051.2 636.518Z" fill="#D48806"/>
<path fill-rule="evenodd" clip-rule="evenodd" d="M540.94 829.885C540.94 839.286 532.695 846.907 522.526 846.907C512.357 846.907 504.112 839.286 504.112 829.885C504.112 820.485 512.357 812.864 522.526 812.864C532.695 812.864 540.94 820.485 540.94 829.885Z" fill="#253368"/>
<path fill-rule="evenodd" clip-rule="evenodd" d="M519.071 983.076H526.198V834.969H519.071V983.076Z" fill="#253368"/>
<path fill-rule="evenodd" clip-rule="evenodd" d="M519.071 983.076L436.054 995.858L430.697 992.281L519.071 968.22V983.076Z" fill="#253368"/>
<path fill-rule="evenodd" clip-rule="evenodd" d="M526.199 983.076L609.216 995.858L614.572 992.281L526.199 968.22V983.076Z" fill="#253368"/>
<path fill-rule="evenodd" clip-rule="evenodd" d="M516.98 1000.26H528.29V978.8H516.98V1000.26Z" fill="#253368"/>
<path fill-rule="evenodd" clip-rule="evenodd" d="M443.833 1000.55C443.833 1005.45 439.535 1009.42 434.235 1009.42C428.933 1009.42 424.636 1005.45 424.636 1000.55C424.636 995.645 428.933 991.673 434.235 991.673C439.535 991.673 443.833 995.645 443.833 1000.55Z" fill="#253368"/>
<path fill-rule="evenodd" clip-rule="evenodd" d="M532.234 1000.55C532.234 1005.45 527.936 1009.42 522.635 1009.42C517.334 1009.42 513.036 1005.45 513.036 1000.55C513.036 995.645 517.334 991.673 522.635 991.673C527.936 991.673 532.234 995.645 532.234 1000.55Z" fill="#253368"/>
<path fill-rule="evenodd" clip-rule="evenodd" d="M621.474 1000.55C621.474 1005.45 617.177 1009.42 611.875 1009.42C606.575 1009.42 602.277 1005.45 602.277 1000.55C602.277 995.645 606.575 991.673 611.875 991.673C617.177 991.673 621.474 995.645 621.474 1000.55Z" fill="#253368"/>
<path fill-rule="evenodd" clip-rule="evenodd" d="M637.949 826.76H407.103C407.103 805.787 425.495 788.786 448.184 788.786H596.868C619.556 788.786 637.949 805.787 637.949 826.76Z" fill="#A3B5D6"/>
<path fill-rule="evenodd" clip-rule="evenodd" d="M671.592 602.687L675.876 564.689C675.876 564.689 687.592 532.488 693.774 533.319C699.638 534.881 688.579 545.38 687.426 554.12C692.579 552.868 691.461 561.26 691.461 561.26C691.461 561.26 695.588 560.412 695.492 567.114C699.713 568.826 697.795 576.818 697.795 576.818C697.795 576.818 693.134 597.805 686.612 612.372C686.612 612.372 674.155 626.071 671.592 602.687Z" fill="#997C79"/>
<path fill-rule="evenodd" clip-rule="evenodd" d="M671.885 590.04C671.885 590.04 671.424 577.33 671.543 570.796C671.664 564.262 667.268 553.229 672.233 555.521C675.571 557.061 676.112 563.969 676.791 569.018C677.47 574.065 687.211 584.676 682.633 593.905C679.538 600.141 673.4 601.913 671.885 590.04Z" fill="#997C79"/>
<path d="M687.743 553.642C687.999 553.823 688.065 554.183 687.889 554.447L687.674 554.779C687.544 554.983 687.403 555.209 687.253 555.454L687.099 555.706C686.503 556.689 685.908 557.741 685.352 558.818C684.791 559.907 684.302 560.961 683.907 561.957C682.375 565.822 682.457 568.177 684.433 568.666C684.734 568.74 684.92 569.053 684.848 569.364C684.775 569.675 684.472 569.866 684.171 569.792C681.211 569.06 681.103 565.971 682.868 561.519C683.278 560.484 683.783 559.395 684.361 558.274C684.93 557.172 685.538 556.097 686.147 555.092L686.455 554.59L686.963 553.793C687.138 553.529 687.488 553.461 687.743 553.642Z" fill="#604346"/>
<path d="M690.598 561.185C690.811 560.952 691.167 560.942 691.392 561.161C691.618 561.381 691.628 561.747 691.415 561.98L691.169 562.255L690.854 562.617C690.744 562.745 690.629 562.881 690.51 563.023C689.827 563.837 689.145 564.706 688.509 565.592C687.903 566.436 687.371 567.253 686.934 568.025C685.399 570.738 685.24 572.451 686.596 573.026C687.797 573.536 689.207 572.705 690.653 570.906C691.072 570.384 691.459 569.823 691.803 569.261L692.034 568.874C692.121 568.724 692.186 568.604 692.229 568.523C692.375 568.241 692.715 568.134 692.988 568.285C693.262 568.436 693.365 568.786 693.219 569.068L693.127 569.239C693.037 569.403 692.911 569.622 692.752 569.88C692.384 570.481 691.97 571.082 691.517 571.645C689.789 573.796 687.976 574.864 686.169 574.097C683.898 573.134 684.125 570.692 685.965 567.441C686.424 566.63 686.978 565.779 687.606 564.903C688.26 563.991 688.96 563.1 689.66 562.265L690.18 561.657L690.521 561.27C690.553 561.234 690.579 561.206 690.598 561.185Z" fill="#604346"/>
<path d="M694.002 567.27C694.297 567.171 694.614 567.337 694.71 567.641C694.806 567.945 694.645 568.272 694.35 568.371C693.518 568.651 692.561 569.618 691.519 571.395C689.325 575.132 689.092 577.366 690.025 577.739C690.97 578.116 692.819 576.847 693.803 574.749C694.106 574.102 695.055 574.492 694.843 575.178C693.495 579.529 691.559 582.305 688.617 584.805C688.379 585.008 688.135 585.208 687.868 585.423L687.111 586.017C686.788 586.267 686.206 586.716 686.026 586.857C682.489 589.621 681.187 591.707 681.018 596.296C681.006 596.615 680.746 596.865 680.436 596.852C680.126 596.84 679.884 596.571 679.896 596.252C680.071 591.52 681.42 589.134 684.797 586.373L685.527 585.795C685.865 585.533 686.465 585.07 686.619 584.95L687.177 584.51C687.437 584.301 687.673 584.107 687.903 583.911C689.791 582.306 691.231 580.596 692.361 578.373L692.458 578.177L692.367 578.242C691.48 578.851 690.548 579.107 689.773 578.872L689.62 578.819C687.733 578.065 688.044 575.077 690.558 570.795C691.727 568.803 692.865 567.652 694.002 567.27Z" fill="#604346"/>
<path d="M675.807 562.146C676.078 562.077 676.352 562.223 676.458 562.479L676.487 562.569L678.725 571.889L678.851 572.047L679.111 572.388C679.202 572.51 679.297 572.64 679.396 572.778C679.957 573.562 680.518 574.436 681.043 575.379C682.598 578.179 683.515 580.994 683.458 583.656C683.436 584.714 683.257 585.727 682.908 586.685C682.8 586.984 682.476 587.136 682.186 587.024C681.895 586.911 681.748 586.578 681.857 586.278C682.16 585.446 682.316 584.562 682.336 583.631C682.387 581.215 681.532 578.588 680.068 575.955C679.567 575.053 679.03 574.216 678.493 573.466L678.222 573.096L677.859 572.625C677.827 572.586 677.803 572.556 677.787 572.537C677.749 572.491 677.717 572.439 677.695 572.383L677.667 572.297L675.397 562.847C675.323 562.537 675.506 562.223 675.807 562.146Z" fill="#604346"/>
<path fill-rule="evenodd" clip-rule="evenodd" d="M631.064 717.493C620.787 721.126 609.566 715.701 605.704 705.228L573.169 617.032C568.507 604.393 574.924 590.286 587.326 585.901C599.727 581.516 613.186 588.598 617.021 601.529L643.795 691.762C646.973 702.475 641.341 713.86 631.064 717.493Z" fill="#ADC6FF"/>
<path fill-rule="evenodd" clip-rule="evenodd" d="M771.407 920.258C771.407 920.258 795.126 934.675 818.553 924.352C833.892 917.593 828.951 940.11 802.079 952.046C786.761 958.85 784.972 949.656 777.454 954.941C773.094 958.004 762.805 961.865 760.125 958.77C755.442 953.361 754.468 949.682 749.828 942.75C727.243 908.995 733.911 893.48 771.407 920.258Z" fill="#253368"/>
<path fill-rule="evenodd" clip-rule="evenodd" d="M633.478 951.796C633.478 951.796 635.934 980.076 657.718 993.699C671.982 1002.62 651.359 1011.6 626.296 996.025C612.01 987.149 618.212 980.292 609.667 977.07C604.713 975.201 595.677 968.826 596.554 964.776C598.088 957.7 600.419 954.739 603.18 946.812C616.624 908.215 632.737 904.766 633.478 951.796Z" fill="#253368"/>
<path fill-rule="evenodd" clip-rule="evenodd" d="M599.004 940.776L635.004 770.351C637.919 756.549 651.53 748.155 664.698 752.036C677.415 755.784 684.702 769.531 680.9 782.593L632.19 949.907C632.19 949.907 616.86 954.093 599.004 940.776Z" fill="#253368"/>
<path fill-rule="evenodd" clip-rule="evenodd" d="M505.245 596.846C505.245 597.767 504.522 598.512 503.628 598.512C502.736 598.512 502.013 597.767 502.013 596.846C502.013 595.926 502.736 595.18 503.628 595.18C504.522 595.18 505.245 595.926 505.245 596.846Z" fill="#4E5C93"/>
<path fill-rule="evenodd" clip-rule="evenodd" d="M572.42 564.081L574.425 536.57L538.33 526.54L531.954 560.993C530.794 569.213 536.116 577.764 543.311 581.5C544.057 581.888 544.835 582.246 545.64 582.562C557.798 587.345 572.016 577.493 572.42 564.081Z" fill="#997C79"/>
<path fill-rule="evenodd" clip-rule="evenodd" d="M527.064 509.302C529.444 536.287 546.783 549.397 563.972 551.294C584.466 553.558 590.065 535.6 590.37 509.121C590.68 482.234 580.018 472.436 560.73 470.68C540.622 468.852 524.652 481.97 527.064 509.302Z" fill="#997C79"/>
<path fill-rule="evenodd" clip-rule="evenodd" d="M541.047 514.071C540.562 511.947 540.18 508.411 537.011 506.822C532.645 504.633 528.404 509.614 528.72 515.255C529.102 522.093 534.683 526.559 537.97 526.784C537.259 533.417 536.559 536.918 536.559 536.918C536.559 536.918 529.729 529.103 526.36 517.377C521.106 499.081 525.019 475.358 547.978 470.484C581.254 465.861 587.248 487.772 587.248 487.772L549.493 484.898L549.701 497.983C549.701 497.983 542.944 497.954 543.418 513.454L541.047 514.071Z" fill="#604346"/>
<path d="M557.747 501.161L569.511 501.624C569.924 501.64 570.246 501.999 570.23 502.425C570.216 502.816 569.922 503.127 569.555 503.164L569.454 503.167L557.794 502.707L554.059 503.652C553.691 503.745 553.32 503.54 553.185 503.186L553.154 503.086C553.064 502.706 553.263 502.323 553.606 502.184L553.703 502.152L557.54 501.183L557.747 501.161Z" fill="#604346"/>
<path fill-rule="evenodd" clip-rule="evenodd" d="M549.952 535.307C554.646 529.258 554.591 523.59 572.451 525.038C581.14 525.742 584.031 528.884 586.723 536.258C583.693 547.16 574.529 553.583 562.967 551.935C538.679 548.472 539.045 523.229 539.045 523.229C539.045 523.229 542.432 524.35 543.432 526.306C546.195 531.717 548.119 533.147 549.952 535.307Z" fill="#7C5B4D"/>
<path fill-rule="evenodd" clip-rule="evenodd" d="M578.215 530.64C578.215 530.64 571.878 530.64 562.26 529.105C562.26 529.105 563.437 533.326 570.406 533.805C575.873 534.182 578.215 530.64 578.215 530.64Z" fill="white"/>
<path d="M562.375 528.342C561.835 528.256 561.39 528.777 561.541 529.319C561.744 530.048 562.321 531.068 563.454 532.065C565.04 533.46 567.31 534.366 570.356 534.575C573.023 534.759 575.225 534.097 576.968 532.875C577.907 532.217 578.52 531.549 578.833 531.075C579.171 530.564 578.818 529.872 578.219 529.868L578.108 529.867C577.839 529.865 577.492 529.857 577.072 529.844L576.533 529.824C575.692 529.79 574.762 529.739 573.748 529.668L573.234 529.63C569.926 529.383 566.281 528.966 562.375 528.342ZM563.677 530.103L564.097 530.166C567.312 530.634 570.336 530.961 573.126 531.17L573.647 531.208C574.504 531.268 575.302 531.314 576.04 531.348L576.44 531.365L576.389 531.406C576.305 531.471 576.217 531.535 576.127 531.598C574.652 532.631 572.779 533.195 570.456 533.035C567.722 532.847 565.76 532.064 564.425 530.89C564.201 530.692 564.001 530.49 563.825 530.285L563.677 530.103Z" fill="#604346"/>
<path d="M577.959 502.618C578.092 502.214 578.517 501.998 578.909 502.135C579.267 502.261 579.473 502.64 579.403 503.013L579.377 503.115L578.03 507.203L580.076 523.039C580.277 524.592 579.113 525.96 577.619 525.981L577.458 525.978L567.999 525.504C567.586 525.484 567.268 525.122 567.288 524.696C567.306 524.306 567.603 523.997 567.97 523.964L568.072 523.962L577.531 524.436C578.127 524.466 578.613 523.965 578.601 523.365L578.592 523.243L576.523 507.228C576.513 507.15 576.515 507.07 576.528 506.993L576.556 506.878L577.959 502.618Z" fill="#604346"/>
<path d="M567.507 537.812L572.034 538.018C572.447 538.036 572.767 538.397 572.749 538.823C572.732 539.213 572.437 539.523 572.07 539.558L571.968 539.56L567.441 539.355C567.028 539.336 566.708 538.976 566.726 538.55C566.743 538.159 567.038 537.849 567.405 537.815L567.507 537.812Z" fill="#604346"/>
<path d="M579.252 502.132L589.239 502.47C589.652 502.484 589.976 502.841 589.963 503.267C589.95 503.658 589.659 503.971 589.292 504.01L589.19 504.013L579.203 503.675C578.79 503.661 578.466 503.304 578.48 502.878C578.492 502.488 578.784 502.174 579.151 502.136L579.252 502.132Z" fill="#604346"/>
<path d="M548.988 546.625C549.214 546.268 549.677 546.168 550.024 546.4C556.853 550.995 563.917 552.089 569.963 551.227L570.478 551.146C570.558 551.133 570.635 551.119 570.709 551.105L571.202 551.003C571.216 551 571.228 550.997 571.238 550.994C571.639 550.892 572.045 551.144 572.144 551.558C572.244 551.972 571.999 552.39 571.598 552.493L571.388 552.543C571.106 552.605 570.696 552.681 570.168 552.756C563.793 553.665 556.375 552.516 549.206 547.694C548.859 547.461 548.762 546.982 548.988 546.625Z" fill="#604346"/>
<path d="M534.056 509.505C534.794 509.425 535.64 509.532 536.454 509.976C538.035 510.837 538.964 512.717 538.964 515.776C538.964 516.077 538.741 516.327 538.451 516.353C536.985 516.484 536.255 517.033 536.118 517.826C535.991 518.551 536.369 519.489 537.068 520.178C537.293 520.398 537.301 520.765 537.087 520.996C536.873 521.228 536.518 521.236 536.293 521.016C535.34 520.078 534.813 518.766 535.012 517.621C535.22 516.427 536.145 515.6 537.666 515.297L537.831 515.267L537.828 515.184C537.73 512.992 537.079 511.705 536.064 511.078L535.93 510.999C535.406 510.714 534.849 510.619 534.355 510.643L534.085 510.668C533.781 510.727 533.487 510.521 533.43 510.206C533.373 509.892 533.573 509.589 533.878 509.53L533.983 509.514C534.005 509.511 534.03 509.508 534.056 509.505Z" fill="#604346"/>
<path d="M583.84 510.092C585.925 510.237 587.485 512.158 587.341 514.369C587.313 514.795 586.956 515.117 586.544 515.088C586.131 515.059 585.819 514.691 585.847 514.266C585.937 512.891 584.985 511.719 583.74 511.633C582.496 511.547 581.402 512.579 581.312 513.954C581.284 514.38 580.928 514.701 580.515 514.673C580.103 514.644 579.791 514.276 579.818 513.851C579.958 511.709 581.645 510.055 583.646 510.084L583.84 510.092Z" fill="#604346"/>
<path d="M563.022 508.658C565.107 508.803 566.666 510.724 566.522 512.936C566.495 513.361 566.138 513.683 565.725 513.654C565.313 513.626 565.001 513.258 565.028 512.832C565.118 511.457 564.167 510.285 562.922 510.199C561.677 510.113 560.583 511.145 560.493 512.52C560.466 512.946 560.109 513.267 559.696 513.239C559.284 513.21 558.972 512.842 559 512.417C559.139 510.275 560.826 508.621 562.827 508.65L563.022 508.658Z" fill="#604346"/>
<path fill-rule="evenodd" clip-rule="evenodd" d="M485.649 719.19C518.788 727.166 562.36 725.048 577.118 718.755C583.546 716.015 583.608 711.086 581.702 702.713C581.702 702.713 602.034 630.773 604.938 587.762C594.26 581.387 587.234 577.039 575.462 571.33C571.794 569.551 560.797 574.534 556.077 573.66C549.1 572.369 538.295 562.935 531.565 563.656C506.364 566.352 486.914 572.692 486.914 572.692C462.466 592.253 485.649 719.19 485.649 719.19Z" fill="#ADC6FF"/>
<path fill-rule="evenodd" clip-rule="evenodd" d="M572.593 563.505L578.803 573.127L565.946 590.907L553.232 572.692L572.593 563.505Z" fill="#ADC6FF"/>
<path fill-rule="evenodd" clip-rule="evenodd" d="M552.686 573.117L532.561 557.653L523.946 565.084L537.496 587.762L552.686 573.117Z" fill="#ADC6FF"/>
<path fill-rule="evenodd" clip-rule="evenodd" d="M562.786 587.182L552.667 573.241L540.867 584.865L545.975 598.733L557.633 600.145L562.786 587.182Z" fill="#253368"/>
<path fill-rule="evenodd" clip-rule="evenodd" d="M557.704 599.801L546.164 598.666L532.475 683.072L549.298 711.8L567.842 685.238L557.704 599.801Z" fill="#253368"/>
<path d="M524.181 565.077C524.505 564.874 524.919 564.956 525.151 565.252L525.209 565.338L537.659 586.551L552.158 572.675C552.458 572.388 552.918 572.406 553.197 572.696L553.269 572.781L565.588 589.933L577.604 572.807C577.824 572.493 578.231 572.4 578.555 572.574L578.649 572.634C578.954 572.861 579.043 573.281 578.875 573.615L578.817 573.712L566.202 591.693C565.929 592.083 565.388 592.116 565.069 591.789L564.994 591.7L552.563 574.392L538.004 588.327C537.683 588.635 537.184 588.59 536.916 588.252L536.854 588.161L523.928 566.137C523.714 565.772 523.828 565.298 524.181 565.077Z" fill="#597EF7"/>
<path d="M546.52 598.391L558.151 599.461C558.357 599.48 558.509 599.667 558.49 599.88C558.474 600.065 558.333 600.209 558.16 600.229L558.084 600.23L546.454 599.16C546.248 599.141 546.096 598.953 546.114 598.741C546.13 598.555 546.271 598.412 546.444 598.392L546.52 598.391Z" fill="#597EF7"/>
<path d="M598.756 623.071C598.844 622.654 599.242 622.39 599.647 622.48C600.051 622.57 600.307 622.981 600.22 623.398L599.128 628.572C595.022 647.964 591.096 665.607 587.458 681.264L586.477 685.464C585.612 689.154 584.806 692.545 584.065 695.626L583.095 699.632L582.046 703.886L582.155 704.161C582.314 704.577 582.472 705.047 582.62 705.561C583.302 707.937 583.531 710.395 583.029 712.722C582.215 716.492 579.579 719.329 574.803 720.8C574.407 720.922 573.99 720.689 573.872 720.281C573.753 719.872 573.978 719.442 574.375 719.32C578.639 718.007 580.874 715.602 581.568 712.386C582.006 710.354 581.8 708.145 581.184 705.999C581.083 705.647 580.977 705.319 580.869 705.019L580.762 704.727C580.677 704.506 580.613 704.355 580.58 704.282C580.52 704.151 580.497 704.006 580.513 703.864L580.564 703.63L581.643 699.256L582.799 694.478C583.675 690.827 584.639 686.755 585.682 682.279L587.297 675.299C590.89 659.662 594.742 642.181 598.756 623.071Z" fill="#597EF7"/>
<path fill-rule="evenodd" clip-rule="evenodd" d="M670.654 596.508L694.166 613.834L641.789 708.305C636.006 718.468 623.164 721.589 613.591 715.156C604.018 708.724 601.599 695.347 608.277 685.787L670.654 596.508Z" fill="#ADC6FF"/>
<path d="M663.657 609.235C663.886 608.927 664.295 608.846 664.614 609.029L664.707 609.092L686.392 626.226C686.72 626.486 686.782 626.97 686.531 627.309C686.302 627.616 685.893 627.697 685.574 627.515L685.481 627.452L663.796 610.317C663.468 610.058 663.406 609.573 663.657 609.235Z" fill="#597EF7"/>
<path fill-rule="evenodd" clip-rule="evenodd" d="M683.1 614.557C683.804 613.445 685.249 613.13 686.326 613.856C687.404 614.58 687.71 616.068 687.006 617.181C686.304 618.294 684.861 618.608 683.781 617.884C682.702 617.158 682.398 615.67 683.1 614.557Z" fill="white"/>
<path fill-rule="evenodd" clip-rule="evenodd" d="M486.985 729.754C486.985 729.754 567.798 736.283 573.492 727.777C575.998 724.032 587.278 753.533 591.871 784.397C584.467 798.512 509.254 821.348 489.864 778.746C483.582 764.943 486.07 736.579 486.985 729.754Z" fill="#4E5C93"/>
<path fill-rule="evenodd" clip-rule="evenodd" d="M574.167 719.625L575.606 730.289C575.606 730.289 567.529 731.73 539.312 733.219C510.687 734.729 487.062 731.32 487.062 731.32L486.071 719.625C486.071 719.625 533.279 721.799 574.167 719.625Z" fill="black"/>
<path fill-rule="evenodd" clip-rule="evenodd" d="M562.862 729.316L562.888 721.737C562.894 719.601 561.223 717.909 559.245 718.062C554.507 718.431 546.131 718.936 540.046 718.482C538.056 718.334 536.396 720.08 536.451 722.228L536.65 729.969C536.697 731.778 537.96 733.274 539.626 733.509C543.588 734.068 551.22 734.666 560.063 732.909C561.675 732.587 562.856 731.082 562.862 729.316Z" fill="#E4EBF7"/>
<path fill-rule="evenodd" clip-rule="evenodd" d="M559.796 728.362L559.827 723C559.836 721.488 558.55 720.295 557.025 720.407C553.369 720.676 546.906 721.048 542.213 720.738C540.677 720.636 539.394 721.874 539.433 723.393L539.573 728.87C539.606 730.15 540.578 731.206 541.864 731.369C544.919 731.757 550.806 732.168 557.631 730.908C558.874 730.678 559.788 729.611 559.796 728.362Z" fill="black"/>
<path fill-rule="evenodd" clip-rule="evenodd" d="M686.72 776.646C686.597 789.981 676.274 800.832 663.349 801.212L519.247 805.439C502.519 805.93 488.743 791.991 488.899 774.733C489.058 757.475 503.084 743.805 519.8 744.62L663.799 751.634C676.715 752.262 686.838 763.311 686.72 776.646Z" fill="#4E5C93"/>
<path fill-rule="evenodd" clip-rule="evenodd" d="M740.79 933.536L644.103 790.426C636.275 778.837 639.561 762.837 651.274 755.517C662.586 748.451 677.316 752.287 684.015 764.045L769.848 914.65C769.848 914.65 762.4 929.089 740.79 933.536Z" fill="#4E5C93"/>
<path d="M669.663 596.154C669.912 595.794 670.394 595.726 670.725 595.985L670.833 596.081C671.02 596.232 672.031 596.973 673.664 598.157L682.644 604.632L694.592 613.2C694.932 613.443 695.016 613.924 694.78 614.275C694.566 614.593 694.161 614.694 693.834 614.527L693.708 614.447L682.92 606.712L672.259 599.024L670.441 597.689L614.088 679.432C613.87 679.748 613.464 679.843 613.139 679.673L613.044 679.613C612.738 679.389 612.645 678.97 612.81 678.635L612.868 678.537L669.663 596.154Z" fill="#597EF7"/>
<path fill-rule="evenodd" clip-rule="evenodd" d="M454.955 705.113C444.718 701.362 439.209 689.913 442.505 679.237L470.256 589.317C474.233 576.433 487.766 569.507 500.12 574.036C512.474 578.562 518.736 592.744 513.936 605.327L480.447 693.142C476.471 703.569 465.192 708.865 454.955 705.113Z" fill="#ADC6FF"/>
<path fill-rule="evenodd" clip-rule="evenodd" d="M529.398 834.145C532.797 832.808 526.767 817.328 524.89 814.159C522.385 809.933 499.336 796.792 499.336 796.792L495.287 778.117L474.058 787.042C474.058 787.042 477.32 807.643 483.304 818.264C487.769 826.188 495.362 824.491 506.162 834.983C511.159 839.839 517.417 844.979 519.963 841.104C520.465 840.341 525.662 841.746 524.995 837.009C524.995 837.009 526.761 838.43 528.426 836.994C529.872 835.746 529.398 834.145 529.398 834.145Z" fill="#997C79"/>
<path d="M501.733 822.898C501.865 822.609 502.2 822.485 502.48 822.622L502.8 822.784C502.871 822.822 502.951 822.864 503.039 822.911C503.476 823.145 503.962 823.421 504.485 823.736C505.979 824.637 507.474 825.677 508.871 826.845C510.136 827.902 511.26 829.015 512.206 830.182L520.561 840.478C520.76 840.723 520.729 841.088 520.491 841.294C520.253 841.499 519.899 841.466 519.7 841.221L511.345 830.925C510.448 829.82 509.376 828.757 508.164 827.744C506.815 826.617 505.367 825.609 503.919 824.736C503.513 824.492 503.132 824.272 502.779 824.079L502.295 823.819C502.161 823.749 502.062 823.699 502.001 823.669C501.721 823.533 501.601 823.188 501.733 822.898Z" fill="#604346"/>
<path d="M507.428 816.14C507.619 815.888 507.972 815.844 508.216 816.041L508.587 816.348L509.168 816.843C509.413 817.055 509.673 817.283 509.945 817.525C511.237 818.679 512.529 819.922 513.736 821.207C515.115 822.676 516.296 824.108 517.217 825.473L517.823 826.365C518.033 826.671 518.251 826.986 518.475 827.31L519.614 828.939C520.547 830.262 521.534 831.639 522.531 833.014L524.032 835.071L524.947 836.312C525.135 836.566 525.088 836.93 524.842 837.124C524.596 837.318 524.243 837.27 524.055 837.016L522.383 834.74L520.885 832.673C520.389 831.985 519.898 831.3 519.418 830.625L518.482 829.301L517.562 827.983C517.11 827.332 516.687 826.714 516.296 826.135C515.413 824.826 514.27 823.44 512.93 822.013C511.747 820.754 510.478 819.534 509.21 818.401L508.693 817.944C508.526 817.799 508.365 817.66 508.211 817.528L507.524 816.953C507.28 816.756 507.237 816.392 507.428 816.14Z" fill="#604346"/>
<path d="M512.538 811.467C512.712 811.202 513.061 811.133 513.318 811.313L513.667 811.565L513.795 811.66C514.169 811.939 514.584 812.261 515.032 812.623C516.31 813.657 517.589 814.803 518.784 816.032C520.966 818.276 522.62 820.536 523.537 822.753L523.692 823.144C524.126 824.302 524.609 825.438 525.132 826.548C525.968 828.323 526.863 829.947 527.757 831.384C527.945 831.685 528.124 831.965 528.294 832.222L528.619 832.707C528.774 832.932 528.883 833.084 528.939 833.16C529.127 833.414 529.081 833.777 528.834 833.972C528.588 834.166 528.236 834.118 528.047 833.864L527.85 833.588C527.806 833.525 527.757 833.454 527.703 833.375L527.366 832.874C527.191 832.608 527.006 832.32 526.813 832.009C525.895 830.536 524.978 828.872 524.122 827.054C523.72 826.2 523.341 825.331 522.988 824.449L522.645 823.562C521.832 821.398 520.2 819.124 517.991 816.852C516.83 815.658 515.585 814.541 514.339 813.534L513.832 813.13C513.587 812.938 513.354 812.76 513.137 812.598L512.688 812.271C512.431 812.092 512.364 811.732 512.538 811.467Z" fill="#604346"/>
<path fill-rule="evenodd" clip-rule="evenodd" d="M471.479 800.141L499.294 792.064L481.084 684.873C478.988 673.29 467.931 665.862 456.811 668.566C445.69 671.269 439.015 683.008 442.154 694.337L471.479 800.141Z" fill="#ADC6FF"/>
<path d="M495.602 776.216C495.996 776.087 496.417 776.311 496.542 776.718C496.657 777.09 496.484 777.486 496.151 777.649L496.056 777.687L470.02 786.222C469.626 786.351 469.205 786.127 469.08 785.72C468.965 785.348 469.139 784.952 469.472 784.789L469.567 784.751L495.602 776.216Z" fill="#597EF7"/>
<path d="M504.387 633.234C504.551 632.843 504.991 632.662 505.371 632.831C505.719 632.985 505.895 633.38 505.796 633.746L505.762 633.845L482.529 689.512L499.453 791.874C499.512 792.23 499.324 792.575 499.011 792.713L498.913 792.748L472.322 800.271C471.923 800.383 471.512 800.141 471.402 799.73C471.302 799.353 471.491 798.965 471.83 798.816L471.926 798.782L497.863 791.444L481.017 689.548C480.999 689.438 481.004 689.325 481.032 689.218L481.067 689.113L504.387 633.234Z" fill="#597EF7"/>
<path fill-rule="evenodd" clip-rule="evenodd" d="M489.123 787.514C489.418 788.806 490.674 789.608 491.927 789.302C493.179 788.998 493.955 787.704 493.661 786.412C493.364 785.12 492.11 784.318 490.857 784.622C489.604 784.928 488.828 786.222 489.123 787.514Z" fill="white"/>
<path d="M487.568 578.589C487.742 578.202 488.187 578.034 488.562 578.213L488.711 578.288C488.828 578.348 488.979 578.43 489.162 578.533L489.305 578.615C489.874 578.945 490.507 579.349 491.186 579.833C493.121 581.211 495.053 582.948 496.855 585.076C501.999 591.147 505.085 599.125 505.085 609.208C505.085 609.634 504.75 609.98 504.336 609.98C503.923 609.98 503.588 609.634 503.588 609.208C503.588 599.511 500.64 591.89 495.728 586.092C494.011 584.065 492.172 582.411 490.336 581.104C489.802 580.724 489.301 580.397 488.843 580.121L488.572 579.962C488.26 579.781 488.041 579.666 487.932 579.614C487.557 579.435 487.394 578.976 487.568 578.589Z" fill="#597EF7"/>
<path fill-rule="evenodd" clip-rule="evenodd" d="M1155.38 289.066C1155.38 289.066 1107.05 295.412 1105.96 321.881C1105.4 335.495 1118.79 350.662 1111.98 354.637C1085.34 370.178 1113.62 377.638 1096.65 390.242C1071.41 408.991 1085.55 442.555 1111.71 441.075C1138.8 439.543 1124.82 476.031 1171.67 466.775C1198.08 461.559 1205.89 456.209 1224.77 447.801C1243.65 439.394 1256.45 392.977 1234.22 369.387C1220.4 354.463 1206.75 355.517 1199.54 331.113C1192.33 306.711 1185.15 291.681 1172.62 293.327C1168.26 286.952 1155.38 289.066 1155.38 289.066Z" fill="#253368"/>
<path fill-rule="evenodd" clip-rule="evenodd" d="M1125.59 345.644C1125.47 345.132 1124.73 345.081 1124.54 345.574C1122.86 349.927 1118.79 361.695 1123.62 362.401C1129.07 363.199 1126.64 350.333 1125.59 345.644Z" fill="white"/>
<path fill-rule="evenodd" clip-rule="evenodd" d="M1168.99 382.931C1164.38 362.204 1163.75 353.942 1163.75 353.942L1137.37 364.575L1138.9 386.98C1139.47 395.228 1147.03 401.388 1155.59 400.579C1164.65 399.724 1170.89 391.479 1168.99 382.931Z" fill="#C99382"/>
<path fill-rule="evenodd" clip-rule="evenodd" d="M1156.1 317.156C1156.1 317.156 1153.34 308.769 1147.24 312.441C1142.89 315.066 1144.14 312.786 1143.32 310.521C1140.29 302.11 1137.47 321.308 1123.64 324.829C1122.82 335.13 1120.69 372.411 1143.95 371.589C1151.46 371.324 1164.16 367.784 1169.52 355.465C1172.76 348.021 1170.84 340.112 1167.76 338.407C1157.62 332.791 1158.12 327.58 1156.1 317.156Z" fill="#C99382"/>
<path d="M1136.41 325.304C1136.07 325.38 1135.85 325.681 1135.87 326.004L1135.89 326.112L1137.18 331.381L1137.09 332.315L1137 333.086C1136.92 333.759 1136.82 334.505 1136.7 335.321C1136.24 338.589 1135.57 342.3 1134.67 346.383C1134.6 346.695 1134.77 347.011 1135.07 347.138C1136.65 347.804 1138.27 348.227 1139.84 348.458C1140.72 348.587 1141.45 348.638 1141.96 348.643L1142.17 348.643C1142.56 348.635 1142.87 348.327 1142.86 347.955C1142.85 347.621 1142.59 347.35 1142.25 347.305L1142.14 347.299H1141.97L1141.6 347.286C1141.18 347.266 1140.66 347.217 1140.05 347.128C1138.96 346.968 1137.84 346.707 1136.74 346.327L1136.16 346.115L1136.24 345.719C1136.98 342.285 1137.55 339.122 1137.98 336.273L1138.09 335.503C1138.23 334.512 1138.35 333.622 1138.44 332.839L1138.54 331.871L1138.59 331.381L1138.57 331.175L1137.25 325.804C1137.17 325.479 1136.86 325.265 1136.52 325.287L1136.41 325.304Z" fill="#7C5B4D"/>
<path d="M1151.28 348.636C1151.09 348.167 1150.55 347.93 1150.06 348.107L1149.43 348.322C1149.31 348.359 1149.19 348.4 1149.05 348.444C1148.24 348.701 1147.34 348.958 1146.4 349.197C1144.41 349.7 1142.45 350.058 1140.63 350.209C1139.18 350.33 1137.86 350.312 1136.71 350.139C1136.2 350.062 1135.71 350.401 1135.63 350.896C1135.55 351.392 1135.9 351.856 1136.42 351.934C1137.73 352.131 1139.2 352.151 1140.8 352.018C1142.73 351.858 1144.79 351.481 1146.88 350.954C1147.87 350.705 1148.8 350.437 1149.64 350.169L1150.37 349.93C1150.52 349.88 1150.64 349.839 1150.73 349.807C1151.22 349.63 1151.46 349.106 1151.28 348.636Z" fill="#C44343"/>
<path d="M1136.91 324.264C1131.69 322.432 1127.72 322.048 1124.97 322.509C1124.57 322.574 1124.3 322.644 1124.14 322.698C1123.66 322.859 1123.41 323.36 1123.58 323.816C1123.74 324.235 1124.19 324.471 1124.63 324.384L1124.85 324.323C1124.94 324.299 1125.08 324.269 1125.28 324.236C1127.71 323.83 1131.36 324.182 1136.28 325.911C1136.76 326.077 1137.28 325.843 1137.45 325.388C1137.63 324.933 1137.38 324.43 1136.91 324.264Z" fill="#253368"/>
<path d="M1156.99 322.76C1154.2 322.511 1151.19 322.539 1148.35 323.039C1146.91 323.29 1145.59 323.655 1144.39 324.147C1143.93 324.337 1143.71 324.853 1143.91 325.298C1144.11 325.743 1144.64 325.95 1145.11 325.759C1146.17 325.322 1147.37 324.993 1148.67 324.764C1151.33 324.297 1154.18 324.27 1156.82 324.506L1157.41 324.564C1157.7 324.595 1157.92 324.624 1158.06 324.645C1158.56 324.719 1159.03 324.392 1159.1 323.914C1159.18 323.436 1158.84 322.987 1158.34 322.912L1157.97 322.863L1157.51 322.811C1157.35 322.794 1157.17 322.777 1156.99 322.76Z" fill="#253368"/>
<path d="M1142.12 355.494C1141.73 355.485 1141.41 355.778 1141.4 356.149C1141.39 356.484 1141.64 356.767 1141.97 356.827L1142.08 356.838L1144.61 356.898C1145 356.907 1145.32 356.613 1145.33 356.242C1145.34 355.908 1145.09 355.625 1144.76 355.565L1144.65 355.553L1142.12 355.494Z" fill="#7C5B4D"/>
<path fill-rule="evenodd" clip-rule="evenodd" d="M1178.33 350.167C1178.21 349.653 1177.47 349.604 1177.28 350.097C1175.6 354.451 1171.53 366.216 1176.36 366.924C1181.81 367.722 1179.38 354.856 1178.33 350.167Z" fill="white"/>
<path fill-rule="evenodd" clip-rule="evenodd" d="M1042.71 482.984C1042.71 482.984 1078.14 427.501 1086.11 417.885C1105.37 394.659 1124.75 400.463 1128.78 416.956C1133.63 436.839 1066.85 502.722 1066.85 502.722C1066.85 502.722 1058.64 512.219 1046.38 505.21C1031.89 496.927 1042.71 482.984 1042.71 482.984Z" fill="#C99382"/>
<path fill-rule="evenodd" clip-rule="evenodd" d="M1065.81 444.966C1069.54 439.965 1095.99 391.256 1116.74 403.926C1134.32 414.66 1130.2 431.851 1100.91 466.035L1065.81 444.966Z" fill="#597EF7"/>
<path fill-rule="evenodd" clip-rule="evenodd" d="M999.518 400.204C1020.18 458.561 1023.49 473.731 1033.49 491.681C1050.11 521.488 1074.81 506.389 1068.33 488.646C1064.27 477.512 1050.97 457.672 1041.34 439.482C1027.76 413.843 1017.02 395.517 1017.02 395.517L999.518 400.204Z" fill="#C99382"/>
<path d="M1054.65 463.799C1054.46 463.477 1054.03 463.367 1053.69 463.553C1053.39 463.72 1053.27 464.07 1053.39 464.372L1053.44 464.471L1064.16 482.293C1064.35 482.615 1064.78 482.725 1065.11 482.539C1065.41 482.372 1065.54 482.022 1065.42 481.719L1065.37 481.62L1054.65 463.799Z" fill="#DD936F"/>
<path fill-rule="evenodd" clip-rule="evenodd" d="M1017.38 396.264L1005.16 363.007C1005.16 363.007 986.995 336.529 981.207 338.579C975.879 341.219 988.787 348.326 991.76 355.939C986.52 355.901 989.384 363.209 989.384 363.209C989.384 363.209 985.221 363.318 986.741 369.323C983.032 371.752 986.584 378.532 986.584 378.532C986.584 378.532 995.55 396.417 1004.94 408.137C1004.94 408.137 1019.88 417.828 1017.38 396.264Z" fill="#C99382"/>
<path fill-rule="evenodd" clip-rule="evenodd" d="M1014.4 384.957C1014.4 384.957 1012.14 373.434 1010.64 367.584C1009.13 361.735 1011.02 350.89 1006.72 353.997C1003.83 356.085 1004.78 362.41 1005.19 367.092C1005.61 371.771 998.471 383.365 1004.85 390.698C1009.17 395.651 1015.47 395.951 1014.4 384.957Z" fill="#C99382"/>
<path d="M992.236 355.446C991.952 355.194 991.509 355.211 991.247 355.483C990.984 355.756 991.001 356.181 991.285 356.433L991.604 356.725C991.862 356.963 992.149 357.236 992.459 357.539C993.346 358.403 994.232 359.327 995.057 360.274C995.898 361.238 996.629 362.172 997.215 363.051C999.028 365.77 999.231 367.526 997.681 368.261C997.335 368.426 997.193 368.829 997.364 369.162C997.535 369.495 997.955 369.632 998.301 369.467C1000.9 368.234 1000.6 365.634 998.394 362.325C997.772 361.393 997.007 360.416 996.13 359.41C995.278 358.433 994.367 357.483 993.457 356.595L992.996 356.152L992.336 355.537C992.295 355.499 992.261 355.469 992.236 355.446Z" fill="#7C5B4D"/>
<path d="M989.312 363.03C989.096 363.338 989.182 363.756 989.503 363.963L989.83 364.179C990.095 364.357 990.39 364.561 990.709 364.788C991.618 365.435 992.527 366.131 993.373 366.847C994.358 367.681 995.191 368.487 995.822 369.24C997.222 370.91 997.441 372.013 996.502 372.649C996.001 372.988 995.393 373.047 994.653 372.844C993.859 372.627 992.973 372.123 992.064 371.419C991.608 371.066 991.176 370.686 990.784 370.306L990.359 369.877C990.335 369.852 990.315 369.829 990.298 369.81C990.044 369.53 989.602 369.5 989.31 369.743C989.018 369.987 988.987 370.411 989.24 370.692L989.405 370.868C989.507 370.973 989.636 371.104 989.79 371.253C990.217 371.666 990.686 372.079 991.185 372.466C992.228 373.273 993.264 373.862 994.269 374.137C995.388 374.444 996.429 374.344 997.309 373.748C999.132 372.513 998.751 370.59 996.913 368.397C996.225 367.577 995.339 366.719 994.299 365.838C993.42 365.094 992.481 364.375 991.542 363.707L991.067 363.374L990.283 362.845C989.962 362.639 989.527 362.721 989.312 363.03Z" fill="#7C5B4D"/>
<path d="M988.225 369.011C987.84 368.977 987.499 369.249 987.464 369.618C987.428 369.988 987.711 370.316 988.096 370.35C988.92 370.424 990.02 371.074 991.384 372.431C994.241 375.272 994.911 377.146 994.198 377.607C993.442 378.096 991.464 377.372 990.109 375.743C989.567 375.091 988.518 375.785 988.959 376.505C990.499 379.013 992.219 380.845 994.215 382.246L994.744 382.608C995.756 383.283 996.569 383.698 998.379 384.491L999.745 385.084C1003.98 386.904 1005.63 388.407 1006.78 392.542C1006.88 392.901 1007.27 393.114 1007.64 393.018C1008.01 392.921 1008.23 392.553 1008.13 392.194C1006.89 387.736 1005.01 385.928 1000.69 384.02L998.711 383.158C996.885 382.35 996.188 381.964 995.041 381.159C994.181 380.557 993.377 379.866 992.616 379.062L992.497 378.931L992.653 378.973C993.462 379.168 994.225 379.13 994.822 378.815L994.98 378.722C996.751 377.576 995.784 374.87 992.391 371.496C990.816 369.93 989.446 369.12 988.225 369.011Z" fill="#7C5B4D"/>
<path d="M1004.68 360.567C1004.34 360.561 1004.04 360.799 1003.98 361.118L1003.97 361.227L1003.8 370.045L1003.62 370.396L1003.48 370.679C1003.19 371.289 1002.91 371.968 1002.64 372.701C1001.82 374.929 1001.35 377.168 1001.41 379.28C1001.46 381.188 1001.94 382.896 1002.93 384.339C1003.14 384.649 1003.58 384.735 1003.9 384.531C1004.22 384.327 1004.31 383.91 1004.1 383.599C1003.27 382.383 1002.85 380.917 1002.81 379.246C1002.76 377.321 1003.19 375.233 1003.96 373.147C1004.21 372.453 1004.48 371.81 1004.76 371.235L1004.97 370.8C1005.03 370.682 1005.08 370.591 1005.11 370.529C1005.14 370.467 1005.17 370.4 1005.18 370.331L1005.19 370.226L1005.37 361.253C1005.38 360.881 1005.07 360.574 1004.68 360.567Z" fill="#7C5B4D"/>
<path fill-rule="evenodd" clip-rule="evenodd" d="M1134.05 779.343C1134.09 778.878 1104.12 932.779 1104.45 941.099C1105.35 963.804 1106.31 966.956 1093.94 973.453C1090.77 975.117 1085.82 973.558 1080.93 979.28C1067.53 994.941 1047.41 1004.28 1044.47 995.677C1042.47 987.596 1074.44 960.395 1077.06 943.438C1079.77 925.821 1086.22 770.167 1089.66 754.949C1095.83 727.736 1140.33 682.454 1134.05 779.343Z" fill="#C99382"/>
<path fill-rule="evenodd" clip-rule="evenodd" d="M1102.19 976.067C1102.19 976.067 1107.68 963.444 1104.43 948.445C1104.43 948.445 1092.28 958.321 1083.42 968.899C1073.19 981.111 1070.61 981.811 1070.61 981.811C1057.29 986.359 1053.93 979.056 1053.93 979.056C1053.93 979.056 1046.96 988.432 1033.49 998.76C1021.44 1008.01 1069.77 1007.94 1075.89 995.972C1082 984.008 1090.42 976.831 1090.42 976.831L1094.95 994.429L1099.54 994.127L1102.19 976.067Z" fill="#253368"/>
<path fill-rule="evenodd" clip-rule="evenodd" d="M1082.11 721.84L1069.81 904.131L1148.68 906.612C1148.68 906.612 1152.98 818.02 1155.94 727.143C1155.94 727.143 1160.85 679.87 1121.86 677.826C1082.87 675.781 1082.11 721.84 1082.11 721.84Z" fill="#E4EBF7"/>
<path fill-rule="evenodd" clip-rule="evenodd" d="M1083.21 722.776C1086.46 649.551 1095.15 571.31 1102.37 555.417C1102.37 555.417 1111.06 545.891 1136.35 561.647C1165.83 580.018 1160.06 603.217 1160.06 603.217L1155.43 726.623C1154.65 736.3 1151.06 766.322 1112.39 761.851C1074.33 757.448 1083.13 724.371 1083.21 722.776Z" fill="#E4EBF7"/>
<path fill-rule="evenodd" clip-rule="evenodd" d="M1175.91 512.062C1161.33 516.615 1123.78 516.978 1119.22 515.481C1114.67 513.984 1118.1 505.646 1118.1 505.646C1098.01 462.426 1098.29 463.075 1096.94 453.98C1095.59 444.946 1102.8 428.613 1102.8 428.613C1102.8 428.613 1096.42 411.437 1098.39 406.362C1101.05 399.501 1127.19 400.557 1131.89 397.783C1136.58 395.007 1136.01 386.059 1136.01 386.059L1171.77 382.602C1171.77 382.602 1172.83 392.719 1175.02 395.694C1179.27 401.474 1192.49 394.422 1203.01 405.971C1221.81 426.614 1188.94 470.674 1178.25 498.957C1178.25 498.957 1183.28 505.28 1175.91 512.062Z" fill="#597EF7"/>
<path d="M1163.72 396.954L1133.68 400.878C1133.18 400.943 1132.83 401.385 1132.9 401.865C1132.96 402.305 1133.35 402.624 1133.8 402.624L1133.92 402.615L1163.97 398.691C1164.47 398.626 1164.82 398.184 1164.75 397.705C1164.69 397.265 1164.3 396.946 1163.85 396.946L1163.72 396.954Z" fill="#253368"/>
<path d="M1156.5 402.104L1135.64 406.386C1135.15 406.487 1134.84 406.953 1134.94 407.426C1135.04 407.86 1135.45 408.15 1135.9 408.117L1136.02 408.1L1156.88 403.819C1157.37 403.717 1157.69 403.251 1157.58 402.778C1157.49 402.344 1157.07 402.054 1156.62 402.087L1156.5 402.104Z" fill="#253368"/>
<path d="M1173.41 447.623C1173.05 447.293 1172.47 447.312 1172.12 447.666L1171.98 447.809C1171.78 448 1171.45 448.28 1171.01 448.624C1170.05 449.372 1168.9 450.123 1167.55 450.825C1162.24 453.601 1155.68 454.811 1147.88 453.577L1147.21 453.465C1144.36 452.967 1137.65 453.039 1128.13 453.529L1125.48 453.673C1124.13 453.749 1122.76 453.832 1121.36 453.921L1119.95 454.011C1117.41 454.177 1114.92 454.353 1112.55 454.53L1107.88 454.895C1107.38 454.937 1107.01 455.362 1107.05 455.845C1107.09 456.327 1107.54 456.684 1108.04 456.642L1110.97 456.41L1113.88 456.19C1115.89 456.043 1117.96 455.899 1120.07 455.761L1122.86 455.584C1124.24 455.5 1125.6 455.421 1126.92 455.35L1130.06 455.19C1138.24 454.801 1144.13 454.76 1146.7 455.16L1146.88 455.19C1155.4 456.679 1162.6 455.405 1168.42 452.365C1169.87 451.61 1171.11 450.8 1172.16 449.986L1172.55 449.672C1172.98 449.325 1173.28 449.046 1173.46 448.862C1173.8 448.508 1173.78 447.953 1173.41 447.623Z" fill="#253368"/>
<path d="M1103.38 417.635C1102.92 417.619 1102.52 417.936 1102.45 418.362L1102.44 418.481L1102.07 428.773L1101.87 429.212C1101.66 429.689 1101.43 430.236 1101.18 430.843C1100.46 432.576 1099.75 434.45 1099.08 436.4C1098.18 439.04 1097.43 441.61 1096.9 444.038C1096.22 447.12 1095.91 449.865 1096.04 452.192C1096.24 455.878 1097.31 460.542 1099.08 465.97C1099.95 468.633 1100.98 471.428 1102.12 474.312C1103.46 477.657 1104.88 480.947 1106.31 484.041L1107.03 485.587L1107.94 487.485C1108.06 487.736 1108.15 487.923 1108.21 488.044C1108.43 488.48 1108.98 488.664 1109.43 488.454C1109.89 488.244 1110.08 487.72 1109.86 487.284L1109.34 486.23L1108.69 484.863C1108.46 484.379 1108.22 483.868 1107.98 483.331C1106.56 480.263 1105.15 477.001 1103.83 473.686C1102.69 470.834 1101.68 468.071 1100.82 465.444C1099.09 460.145 1098.05 455.612 1097.86 452.101C1097.75 449.947 1098.04 447.345 1098.69 444.399C1099.2 442.041 1099.93 439.53 1100.82 436.948C1101.36 435.353 1101.94 433.807 1102.53 432.351L1102.88 431.489C1103.07 431.013 1103.26 430.575 1103.43 430.181L1103.81 429.324C1103.84 429.256 1103.86 429.184 1103.87 429.111L1103.89 429L1104.26 418.541C1104.28 418.057 1103.88 417.651 1103.38 417.635Z" fill="#253368"/>
<path fill-rule="evenodd" clip-rule="evenodd" d="M1131.61 608.283L1097.62 577.232C1097.62 577.232 1101.63 541.603 1117.81 525.034L1179.65 518.459C1179.65 518.459 1205.24 530.456 1217.2 575.571L1162.56 606.293L1131.61 608.283Z" fill="#E4EBF7"/>
<path fill-rule="evenodd" clip-rule="evenodd" d="M1181.15 519.051L1117.81 525.035L1118.66 515.593L1178.3 509.533L1181.15 519.051Z" fill="#E4EBF7"/>
<path d="M1139.92 523.479C1139.55 523.465 1139.23 523.747 1139.21 524.11C1138.97 529.921 1138.93 536.199 1139.07 542.876C1139.33 555.239 1140.19 568.465 1141.48 581.821L1141.73 584.412C1142.16 588.685 1142.6 592.732 1143.05 596.484L1143.41 599.413L1143.96 603.666C1144.02 604.026 1144.36 604.278 1144.73 604.23C1145.11 604.181 1145.37 603.85 1145.32 603.491L1144.98 600.902C1144.84 599.859 1144.7 598.705 1144.55 597.448L1144.28 595.202C1143.79 591.019 1143.3 586.489 1142.84 581.701C1141.56 568.374 1140.7 555.177 1140.44 542.849C1140.3 536.197 1140.34 529.945 1140.58 524.163C1140.6 523.8 1140.3 523.494 1139.92 523.479Z" fill="#A3B5D6"/>
<path d="M1180.96 518.891L1118.86 524.437C1118.48 524.471 1118.2 524.791 1118.24 525.152C1118.27 525.478 1118.54 525.726 1118.87 525.748L1118.98 525.746L1181.09 520.2C1181.46 520.167 1181.74 519.846 1181.7 519.485C1181.67 519.159 1181.4 518.911 1181.07 518.89L1180.96 518.891Z" fill="#A3B5D6"/>
<path fill-rule="evenodd" clip-rule="evenodd" d="M1181.9 813.859C1181.83 813.397 1195.56 928.664 1195.82 936.985C1196.52 959.697 1193.9 962.89 1206.7 968.564C1209.98 970.02 1214.81 968.142 1220.09 973.532C1234.56 988.283 1255.3 996.286 1257.63 987.515C1259.05 979.32 1225.23 954.269 1221.42 937.52C1217.47 920.121 1236.63 783.912 1223.84 774.345C1211.05 764.779 1183.37 718.246 1181.9 813.859Z" fill="#C99382"/>
<path fill-rule="evenodd" clip-rule="evenodd" d="M1198.65 971.712C1198.65 971.712 1194.17 959.489 1196.36 944.313C1196.36 944.313 1207.28 953.363 1216.87 963.336C1227.94 974.854 1230.57 975.384 1230.57 975.384C1244.18 979.054 1247.01 971.548 1247.01 971.548C1247.01 971.548 1254.63 980.448 1268.79 989.874C1281.47 998.315 1233.25 1001.39 1226.3 989.857C1219.36 978.319 1210.45 971.707 1210.45 971.707L1207.18 989.56L1202.58 989.559L1198.65 971.712Z" fill="#253368"/>
<path fill-rule="evenodd" clip-rule="evenodd" d="M1230.39 703.295L1246.89 901.685L1173.88 907.473C1173.88 907.473 1161.07 800.515 1156.65 709.693C1156.65 709.693 1150.99 662.498 1189.93 659.877C1228.89 657.254 1230.39 703.295 1230.39 703.295Z" fill="#E4EBF7"/>
<path fill-rule="evenodd" clip-rule="evenodd" d="M1157.03 706.349C1148.62 633.505 1144.65 553.091 1149.27 536.329C1149.27 536.329 1156.34 525.64 1183.83 537.509C1215.88 551.347 1216.9 577.553 1216.9 577.553L1230.86 699.158C1231.63 708.837 1234.69 736.974 1196.11 742.055C1158.13 747.058 1157.21 707.936 1157.03 706.349Z" fill="#E4EBF7"/>
<path fill-rule="evenodd" clip-rule="evenodd" d="M1205.53 499.205C1205.53 499.205 1180.77 448.084 1176.92 435.351C1167.63 404.594 1182.04 398.59 1198.59 405.63C1218.54 414.117 1242.72 497.66 1242.72 497.66C1242.72 497.66 1244.86 508.256 1231.89 514.088C1216.57 520.982 1205.53 499.205 1205.53 499.205Z" fill="#C99382"/>
<path fill-rule="evenodd" clip-rule="evenodd" d="M1190.63 468.102C1188.5 462.295 1155.06 413.082 1184.22 400.585C1203.24 392.432 1213.49 409.221 1230.15 452.281L1190.63 468.102Z" fill="#597EF7"/>
<path fill-rule="evenodd" clip-rule="evenodd" d="M1113.15 504.647C1113.7 509.994 1118.32 514.102 1123.91 514.218L1222.18 516.255C1233.46 516.488 1242.49 507.318 1241.63 496.506C1240.78 485.939 1230.81 478.259 1219.89 479.756L1122.58 493.092C1116.73 493.896 1112.57 498.989 1113.15 504.647Z" fill="#C99382"/>
<path fill-rule="evenodd" clip-rule="evenodd" d="M1121.19 528.924L1099.59 463.997C1099.23 462.925 1098.2 462.194 1097.03 462.178L1036.45 461.391C1034.57 461.366 1033.23 463.141 1033.84 464.85L1056.39 528.054C1056.75 529.071 1057.73 529.771 1058.84 529.818L1118.48 532.331C1120.37 532.41 1121.77 530.656 1121.19 528.924Z" fill="#253368"/>
<path fill-rule="evenodd" clip-rule="evenodd" d="M1118 528.132L1096.77 464.336C1096.34 463.04 1095.09 462.154 1093.68 462.135L1032.34 461.337C1031.03 461.32 1030.09 462.561 1030.52 463.757L1053.38 527.836C1053.79 528.961 1054.86 529.736 1056.1 529.787L1114.72 532.258C1117.01 532.354 1118.7 530.229 1118 528.132Z" fill="#253368"/>
<path fill-rule="evenodd" clip-rule="evenodd" d="M1088.46 468.283C1087.78 469.016 1088.03 470.303 1089.01 471.158C1090.01 472.014 1091.36 472.114 1092.05 471.381C1092.74 470.648 1092.49 469.361 1091.5 468.504C1090.51 467.65 1089.15 467.55 1088.46 468.283Z" fill="#ADC6FF"/>
<path fill-rule="evenodd" clip-rule="evenodd" d="M1089.28 469.049C1088.92 469.43 1089.05 470.098 1089.56 470.543C1090.08 470.985 1090.78 471.038 1091.14 470.657C1091.5 470.277 1091.37 469.609 1090.85 469.165C1090.34 468.721 1089.63 468.669 1089.28 469.049Z" fill="#E4EBF7"/>
<path fill-rule="evenodd" clip-rule="evenodd" d="M1094.22 516.716C1090.74 516.392 1088.91 514.994 1089.24 512.208C1085.05 510.942 1085.52 507.535 1085.52 507.535C1085.52 507.535 1077.46 507.416 1076.11 504.109C1075.58 502.824 1076.6 501.447 1078.03 501.354C1095.3 500.23 1107.61 491.442 1107.61 491.442C1107.61 491.442 1100.83 481.865 1101.54 477.446C1101.76 476.138 1103.53 475.717 1104.37 476.771C1111.48 485.796 1125.76 492.873 1125.76 492.873C1125.76 492.873 1142.89 508.294 1124.31 515.289C1124.31 515.289 1110.14 520.712 1100.27 520.026C1095.6 519.7 1094.22 516.716 1094.22 516.716Z" fill="#C99382"/>
<path d="M1098.22 504.595C1098.08 504.347 1097.75 504.258 1097.49 504.397C1096.26 505.061 1094.81 505.602 1093.2 506.03C1091.28 506.539 1089.22 506.864 1087.14 507.041C1086.1 507.13 1085.21 507.17 1084.54 507.181L1084.05 507.183C1083.76 507.179 1083.52 507.406 1083.51 507.689C1083.51 507.942 1083.7 508.154 1083.94 508.201L1084.04 508.21L1084.3 508.211C1085.02 508.207 1086.03 508.168 1087.24 508.065C1089.37 507.883 1091.49 507.547 1093.48 507.02C1095.17 506.572 1096.7 506.002 1098.01 505.294C1098.27 505.155 1098.36 504.842 1098.22 504.595Z" fill="#7C5B4D"/>
<path d="M1099.85 509.691C1099.72 509.436 1099.4 509.329 1099.13 509.452L1098.65 509.667C1096.6 510.557 1094.4 511.127 1092.19 511.44C1090.82 511.633 1089.73 511.696 1089.05 511.691C1088.74 511.687 1088.5 511.914 1088.5 512.198C1088.49 512.45 1088.68 512.662 1088.93 512.709L1089.02 512.719L1089.25 512.718L1089.73 512.706C1090.42 512.678 1091.31 512.603 1092.34 512.457C1094.65 512.131 1096.94 511.536 1099.09 510.604L1099.6 510.377C1099.86 510.254 1099.97 509.947 1099.85 509.691Z" fill="#7C5B4D"/>
<path d="M1102.92 515.388C1102.79 515.132 1102.47 515.025 1102.2 515.149C1101.63 515.413 1100.29 515.659 1098.47 515.862C1097.53 515.965 1096.53 516.051 1095.53 516.121L1094.56 516.183L1094.2 516.203C1093.9 516.217 1093.67 516.459 1093.69 516.742C1093.7 517.025 1093.95 517.243 1094.25 517.229L1094.62 517.209C1094.92 517.191 1095.25 517.171 1095.61 517.146C1096.62 517.075 1097.64 516.988 1098.59 516.882L1099.34 516.793C1100.91 516.596 1102.05 516.363 1102.67 516.074C1102.93 515.95 1103.05 515.643 1102.92 515.388Z" fill="#7C5B4D"/>
<path d="M1219.92 479.242L1219.82 479.246L1124.94 491.699C1124.65 491.738 1124.44 491.997 1124.48 492.278C1124.52 492.528 1124.74 492.711 1124.99 492.722L1125.09 492.717L1219.97 480.264C1220.26 480.226 1220.46 479.967 1220.42 479.686C1220.39 479.436 1220.17 479.253 1219.92 479.242Z" fill="#7C5B4D"/>
<path d="M1121.7 596.004C1121.39 595.799 1120.96 595.876 1120.75 596.175C1120.56 596.442 1120.6 596.795 1120.83 597.014L1120.93 597.089L1146 613.547L1173.19 900.519C1173.23 900.844 1173.5 901.093 1173.83 901.115H1173.94C1174.28 901.084 1174.54 900.822 1174.56 900.507L1174.56 900.4L1147.33 613.12C1147.31 612.963 1147.24 612.819 1147.13 612.71L1147.03 612.636L1121.7 596.004Z" fill="#A3B5D6"/>
<path d="M1178.61 441.581C1178.41 441.138 1177.87 440.939 1177.41 441.136C1176.99 441.316 1176.78 441.766 1176.9 442.181L1176.94 442.293L1189.28 468.952C1189.47 469.358 1189.94 469.559 1190.37 469.437L1190.49 469.396L1229.54 452.611C1230 452.413 1230.21 451.894 1230 451.452C1229.81 451.047 1229.34 450.847 1228.91 450.969L1228.8 451.01L1190.58 467.436L1178.61 441.581Z" fill="#253368"/>
<path fill-rule="evenodd" clip-rule="evenodd" d="M1152.92 333.977C1152.92 336.174 1151.86 337.955 1150.54 337.955C1149.23 337.955 1148.17 336.174 1148.17 333.977C1148.17 331.781 1149.23 330 1150.54 330C1151.86 330 1152.92 331.781 1152.92 333.977" fill="#5C4E4A"/>
<path fill-rule="evenodd" clip-rule="evenodd" d="M1128.38 337.955C1127.07 337.955 1126 336.174 1126 333.977C1126 331.781 1127.07 330 1128.38 330C1129.69 330 1130.76 331.781 1130.76 333.977C1130.76 336.174 1129.69 337.955 1128.38 337.955Z" fill="#5C4E4A"/>
<path fill-rule="evenodd" clip-rule="evenodd" d="M701.602 607.959L690.592 607.511L679.581 607.062C677.399 606.973 675.64 604.449 675.563 601.296L674.003 535.177C673.92 531.735 675.868 528.907 678.253 529.002L705.978 530.13C708.363 530.229 710.196 533.21 709.983 536.64V605.122C709.785 608.263 703.787 608.048 701.602 607.959Z" fill="#253368"/>
<path fill-rule="evenodd" clip-rule="evenodd" d="M700.438 601.491L690.762 601.115L681.087 600.74C679.169 600.666 677.623 598.556 677.556 595.919L676.184 540.64C676.111 537.762 677.823 535.398 679.919 535.477L704.284 536.42C706.379 536.503 707.99 538.995 707.803 541.863V599.118C707.629 601.744 702.358 601.565 700.438 601.491Z" fill="white" fill-opacity="0.9"/>
<path d="M703.506 561.727H679.494C679.221 561.727 679 562.107 679 562.577V563.994C679 564.464 679.221 564.844 679.494 564.844H703.506C703.779 564.844 704 564.464 704 563.994V562.577C704 562.107 703.779 561.727 703.506 561.727Z" fill="#A3B5D6"/>
<path d="M703.506 568.164H679.494C679.221 568.164 679 568.545 679 569.014V570.431C679 570.901 679.221 571.282 679.494 571.282H703.506C703.779 571.282 704 570.901 704 570.431V569.014C704 568.545 703.779 568.164 703.506 568.164Z" fill="#A3B5D6"/>
<path d="M703.506 574.594H679.494C679.221 574.594 679 574.974 679 575.444V576.861C679 577.331 679.221 577.711 679.494 577.711H703.506C703.779 577.711 704 577.331 704 576.861V575.444C704 574.974 703.779 574.594 703.506 574.594Z" fill="#A3B5D6"/>
<path d="M703.506 587.453H679.494C679.221 587.453 679 587.834 679 588.303V589.72C679 590.19 679.221 590.571 679.494 590.571H703.506C703.779 590.571 704 590.19 704 589.72V588.303C704 587.834 703.779 587.453 703.506 587.453Z" fill="#A3B5D6"/>
<path d="M703.506 581.023H679.494C679.221 581.023 679 581.404 679 581.874V583.291C679 583.76 679.221 584.141 679.494 584.141H703.506C703.779 584.141 704 583.76 704 583.291V581.874C704 581.404 703.779 581.023 703.506 581.023Z" fill="#A3B5D6"/>
<path d="M703.506 593.883H679.494C679.221 593.883 679 594.263 679 594.733V596.15C679 596.62 679.221 597 679.494 597H703.506C703.779 597 704 596.62 704 596.15V594.733C704 594.263 703.779 593.883 703.506 593.883Z" fill="#A3B5D6"/>
<path d="M695.977 553.854C695.08 553.498 694.16 553.183 693.221 552.911V551.581C693.616 551.362 693.962 551.088 694.244 550.771C694.585 550.398 694.807 549.784 694.958 549.11C695.553 548.994 695.999 548.489 695.999 547.888C696.014 547.423 695.718 546.988 695.229 546.755C695.251 546.113 695.229 545.664 695.229 545.664C695.216 544.496 694.435 543.424 693.188 542.862V542C689.737 542 688.625 543.026 688.625 543.026C687.555 543.617 686.91 544.605 686.902 545.664C686.902 545.664 686.885 546.091 686.902 546.706C686.378 546.869 686 547.338 686 547.892C686 548.536 686.513 549.067 687.174 549.133C687.322 549.8 687.546 550.406 687.878 550.774C688.131 551.054 688.432 551.302 688.773 551.508V552.91C687.834 553.182 686.914 553.496 686.017 553.853C689.073 555.382 692.913 555.382 695.968 553.853L695.977 553.854Z" fill="#253368"/>
</svg>
